<svg width="80" height="80" viewBox="0 0 80 80" fill="none" xmlns="http://www.w3.org/2000/svg">
<circle cx="40" cy="40" r="20" fill="#363E43"/>
<path d="M39.7327 38.9447L32.0168 31.2288C31.7292 30.931 31.2546 30.9227 30.9568 31.2103C30.659 31.4979 30.6508 31.9725 30.9384 32.2703C30.9444 32.2765 30.9506 32.2827 30.9568 32.2887L38.6727 40.0047L30.9568 47.7205C30.6692 48.0183 30.6774 48.4929 30.9752 48.7805C31.2657 49.0611 31.7263 49.0611 32.0168 48.7805L39.7327 41.0646L47.4485 48.7805C47.7413 49.0732 48.2158 49.0732 48.5085 48.7805C48.8011 48.4878 48.8011 48.0133 48.5085 47.7205L40.7926 40.0047L48.5085 32.2888C48.7961 31.991 48.7879 31.5164 48.4901 31.2288C48.1995 30.9483 47.739 30.9483 47.4485 31.2288L39.7327 38.9447Z" fill="white"/>
</svg>
