<svg width="80" height="80" viewBox="0 0 80 80" fill="none" xmlns="http://www.w3.org/2000/svg">
<circle cx="40" cy="40" r="20" fill="#2D60A4"/>
<path d="M40.4775 39.2571L40.4775 28.3452C40.4847 27.9312 40.155 27.5898 39.741 27.5826C39.3271 27.5754 38.9857 27.9052 38.9785 28.3191C38.9783 28.3278 38.9783 28.3365 38.9785 28.3452L38.9784 39.2571L28.0665 39.2571C27.6526 39.2643 27.3228 39.6057 27.3301 40.0196C27.3371 40.4235 27.6627 40.7491 28.0665 40.7561L38.9784 40.7561L38.9784 51.668C38.9785 52.0819 39.314 52.4175 39.7279 52.4175C40.1418 52.4175 40.4774 52.0819 40.4774 51.668L40.4775 40.7561L51.3894 40.7561C51.8033 40.7489 52.133 40.4075 52.1258 39.9936C52.1188 39.5898 51.7931 39.2641 51.3894 39.2571L40.4775 39.2571Z" fill="white"/>
</svg>
