<svg width="15" height="18" viewBox="0 0 15 18" fill="none" xmlns="http://www.w3.org/2000/svg">
<path d="M4.89491 18C2.21597 17.9846 0 12.516 0 9.73091C0 5.18155 3.41279 4.18557 4.72806 4.18557C5.32079 4.18557 5.95371 4.41834 6.51196 4.62432C6.90233 4.76801 7.30607 4.91633 7.53061 4.91633C7.66501 4.91633 7.98173 4.79016 8.26137 4.67945C8.85772 4.44204 9.5998 4.14697 10.4639 4.14697C10.4655 4.14697 10.4676 4.14697 10.4691 4.14697C11.1143 4.14697 13.0708 4.28858 14.247 6.05497L14.5225 6.46901L14.126 6.76822C13.5595 7.19565 12.5259 7.97535 12.5259 9.5198C12.5259 11.349 13.6965 12.0525 14.2588 12.3908C14.5071 12.5402 14.764 12.6942 14.764 13.031C14.764 13.2509 13.009 17.9727 10.4603 17.9727C9.83668 17.9727 9.39586 17.7853 9.00703 17.62C8.6136 17.4526 8.2742 17.3084 7.71339 17.3084C7.42911 17.3084 7.06964 17.4428 6.68907 17.5855C6.16901 17.7796 5.58035 18 4.91242 18H4.89491Z" fill="white"/>
<path d="M10.734 0C10.8004 2.3933 9.08879 4.05366 7.37921 3.94952C7.0975 2.03959 9.08858 0 10.734 0Z" fill="white"/>
</svg>
