<svg width="108" height="108" viewBox="0 0 108 108" fill="none" xmlns="http://www.w3.org/2000/svg">
<circle cx="54" cy="54" r="54" fill="#2D60A4"/>
<path d="M30.3984 77.5646C28.7622 77.5628 27.1936 76.9119 26.0366 75.755C24.8796 74.598 24.2288 73.0293 24.2269 71.3931V38.342C24.2234 38.281 24.2234 38.2197 24.2269 38.1587V36.748C24.2269 35.0975 24.8821 33.5145 26.0486 32.3467C27.215 31.1789 28.7973 30.5219 30.4478 30.5201H41.0275C42.6757 30.5238 44.2555 31.1792 45.4223 32.3433C46.589 33.5074 47.248 35.0857 47.2555 36.7339H70.9329C72.5822 36.7358 74.1634 37.3918 75.3297 38.558C76.4959 39.7243 77.1519 41.3055 77.1538 42.9548V71.3437C77.1519 72.993 76.4959 74.5743 75.3297 75.7405C74.1634 76.9067 72.5822 77.5628 70.9329 77.5646H30.3984Z" fill="#2D60A4"/>
<path d="M41.0275 32.1282C42.249 32.1282 43.4205 32.6134 44.2842 33.4771C45.1479 34.3409 45.6332 35.5124 45.6332 36.7339V38.342H70.9328C72.1525 38.342 73.3222 38.8265 74.1846 39.6889C75.047 40.5513 75.5315 41.721 75.5315 42.9407V71.3296C75.5315 72.5492 75.047 73.7189 74.1846 74.5813C73.3222 75.4437 72.1525 75.9282 70.9328 75.9282H30.3984C29.1918 75.9282 28.0347 75.449 27.1815 74.5958C26.3284 73.7426 25.8491 72.5855 25.8491 71.379V38.342V36.7339C25.8482 36.1294 25.9664 35.5306 26.1971 34.9719C26.4278 34.4131 26.7664 33.9053 27.1935 33.4776C27.6206 33.0498 28.1279 32.7104 28.6863 32.4789C29.2447 32.2474 29.8432 32.1282 30.4477 32.1282H41.0275ZM41.0275 28.8837H30.4477C28.367 28.8856 26.3721 29.7135 24.9014 31.1855C23.4307 32.6575 22.6046 34.6531 22.6046 36.7339V38.0669C22.6046 38.1516 22.6046 38.2362 22.6046 38.3208V71.3578C22.6158 73.4182 23.4417 75.3904 24.9018 76.844C26.362 78.2976 28.338 79.1145 30.3984 79.1163H70.9328C73.0124 79.1144 75.0062 78.2875 76.4767 76.817C77.9472 75.3466 78.7741 73.3527 78.7759 71.2732V42.9407C78.7741 40.8611 77.9472 38.8673 76.4767 37.3968C75.0062 35.9263 73.0124 35.0994 70.9328 35.0976H48.7295C48.3499 33.3384 47.3778 31.7628 45.9759 30.6344C44.574 29.5059 42.8272 28.8929 41.0275 28.8978V28.8837Z" fill="white"/>
<path d="M76.9139 75.103L65.8475 75.505V47.377H80.1725V56.0595L76.9139 75.103Z" fill="#2D60A4"/>
<path d="M71.1373 74.0874L70.9328 75.9283H35.1239V74.3837L36.1396 70.6384L42.967 52.2509C42.967 52.2509 42.3957 47.4477 50.8595 47.4477C59.3233 47.4477 75.9899 47.892 75.9899 47.892L71.1373 74.0874Z" fill="#2D60A4"/>
<path d="M70.4955 77.5646C71.9088 77.5613 73.2874 77.1266 74.4469 76.3187C75.6065 75.5108 76.4918 74.3681 76.9844 73.0435L84.8981 51.8135C85.0882 51.3085 85.1532 50.765 85.0876 50.2294C85.0221 49.6938 84.8278 49.182 84.5215 48.7378C84.2152 48.2935 83.8059 47.93 83.3286 47.6784C82.8513 47.4267 82.3202 47.2942 81.7806 47.2924H49.6464C48.2405 47.2988 46.8693 47.7298 45.7126 48.5291C44.5559 49.3283 43.6678 50.4584 43.1645 51.7712C43.1645 51.7712 37.522 67.8383 35.258 73.0364C32.7894 78.7283 27.5841 76.7393 27.5841 76.7393" stroke="white" stroke-width="3" stroke-linecap="round" stroke-linejoin="round"/>
<path d="M57.0311 54.1693H76.3708" stroke="#2D60A4" stroke-width="4.6" stroke-linecap="round" stroke-linejoin="round"/>
</svg>
