<svg width="108" height="108" viewBox="0 0 108 108" fill="none" xmlns="http://www.w3.org/2000/svg">
<circle cx="54" cy="54" r="54" fill="#2D60A4"/>
<path d="M58.188 30.9453H39.7408C37.4359 30.9453 35.5674 32.8138 35.5674 35.1187V63.6045C35.5674 65.9094 37.4359 67.778 39.7408 67.778H58.188C60.4929 67.778 62.3614 65.9094 62.3614 63.6045V35.1187C62.3614 32.8138 60.4929 30.9453 58.188 30.9453Z" fill="#2D60A4"/>
<path d="M58.1881 32.228C58.9523 32.2295 59.6846 32.5341 60.2245 33.075C60.7643 33.6159 61.0675 34.3489 61.0675 35.113V63.6045C61.0675 64.3686 60.7643 65.1016 60.2245 65.6425C59.6846 66.1834 58.9523 66.488 58.1881 66.4895H39.7409C38.9758 66.4895 38.242 66.1855 37.7009 65.6445C37.1599 65.1034 36.8559 64.3696 36.8559 63.6045V35.113C36.8559 34.3479 37.1599 33.6141 37.7009 33.073C38.242 32.532 38.9758 32.228 39.7409 32.228H58.1881ZM58.1881 29.6512H39.7409C38.2928 29.6526 36.9044 30.2286 35.8804 31.2525C34.8565 32.2765 34.2805 33.6649 34.2791 35.113V63.6045C34.2805 65.0526 34.8565 66.441 35.8804 67.465C36.9044 68.489 38.2928 69.0649 39.7409 69.0663H58.1881C59.6353 69.0634 61.0222 68.4868 62.045 67.463C63.0678 66.4392 63.6429 65.0516 63.6444 63.6045V35.113C63.6429 33.6659 63.0678 32.2783 62.045 31.2545C61.0222 30.2307 59.6353 29.6541 58.1881 29.6512Z" fill="white"/>
<path d="M43.2589 36.2615H54.9334" stroke="white" stroke-width="3" stroke-linecap="round" stroke-linejoin="round"/>
<path d="M41.1246 59.1958V42.0259" stroke="#2D60A4" stroke-width="4.6" stroke-linecap="round" stroke-linejoin="round"/>
<path d="M51.3145 78.6065C50.2081 78.605 49.1474 78.1648 48.3651 77.3825C47.5827 76.6001 47.1425 75.5394 47.1411 74.433V45.9304C47.1425 44.8245 47.5829 43.7644 48.3654 42.983C49.1479 42.2015 50.2086 41.7626 51.3145 41.7626H64.4566C64.6261 41.7617 64.794 41.7945 64.9507 41.8589C65.1075 41.9233 65.2499 42.0181 65.3697 42.1379L73.5598 50.3279C73.6789 50.4471 73.7733 50.5886 73.8377 50.7443C73.9021 50.9001 73.9352 51.0669 73.9351 51.2354V74.4218C73.9336 75.5282 73.4935 76.5889 72.7111 77.3713C71.9288 78.1536 70.8681 78.5938 69.7617 78.5953L51.3145 78.6065Z" fill="#2D60A4"/>
<path d="M64.4566 43.0622L72.6466 51.2466V74.433C72.6466 75.1982 72.3427 75.932 71.8016 76.473C71.2606 77.0141 70.5268 77.318 69.7616 77.318H51.3145C50.5498 77.3165 49.8168 77.0121 49.2761 76.4714C48.7354 75.9307 48.4309 75.1977 48.4295 74.433V45.9304C48.4309 45.1662 48.7356 44.4339 49.2764 43.894C49.8173 43.3542 50.5503 43.051 51.3145 43.051H64.4566V43.0622ZM64.4566 40.4741H51.3145C49.8673 40.4756 48.4797 41.0507 47.4559 42.0735C46.4321 43.0963 45.8555 44.4832 45.8526 45.9304V74.4218C45.8541 75.8699 46.43 77.2584 47.454 78.2823C48.4779 79.3063 49.8663 79.8822 51.3145 79.8837H69.7616C71.2098 79.8822 72.5981 79.3063 73.6221 78.2823C74.6461 77.2584 75.222 75.8699 75.2235 74.4218V51.2466C75.2244 50.9082 75.1579 50.573 75.0281 50.2604C74.8983 49.9479 74.7076 49.6642 74.4672 49.426L66.2828 41.2416C66.0432 41.0015 65.7585 40.8112 65.4451 40.6814C65.1317 40.5516 64.7958 40.485 64.4566 40.4853V40.4741Z" fill="white"/>
<path d="M65.4481 44.0482L71.4758 50.0815H68.3051C67.5468 50.08 66.8202 49.7778 66.2846 49.2411C65.7489 48.7044 65.4481 47.9771 65.4481 47.2189V44.0482ZM65.4481 41.4713C65.1099 41.473 64.7752 41.5396 64.4622 41.6674C63.9917 41.863 63.5896 42.1934 63.3065 42.6171C63.0234 43.0407 62.872 43.5387 62.8712 44.0482V47.2189C62.8727 48.6601 63.4455 50.0419 64.464 51.0616C65.4826 52.0812 66.8639 52.6554 68.3051 52.6584H71.4758C71.9855 52.6573 72.4834 52.5055 72.9069 52.222C73.3305 51.9385 73.6607 51.536 73.8559 51.0653C74.0512 50.5945 74.1028 50.0765 74.0042 49.5764C73.9056 49.0764 73.6613 48.6167 73.302 48.2552L67.2687 42.2276C67.0299 41.988 66.7462 41.7978 66.4338 41.668C66.1214 41.5382 65.7864 41.4714 65.4481 41.4713Z" fill="white"/>
<path d="M53.9586 56.5657H67.1232" stroke="white" stroke-width="3" stroke-linecap="round" stroke-linejoin="round"/>
<path d="M53.9586 64H67.1232" stroke="white" stroke-width="3" stroke-linecap="round" stroke-linejoin="round"/>
<path d="M53.9586 71H67.1232" stroke="white" stroke-width="3" stroke-linecap="round" stroke-linejoin="round"/>
<path d="M53.9979 46.4178H59.1965" stroke="white" stroke-width="3" stroke-linecap="round" stroke-linejoin="round"/>
</svg>
