<svg width="108" height="108" viewBox="0 0 108 108" fill="none" xmlns="http://www.w3.org/2000/svg">
<circle cx="54" cy="54" r="54" fill="#2D60A4"/>
<path d="M35.2565 77.4457C34.5571 77.4435 33.867 77.2862 33.2358 76.985C32.6046 76.6839 32.0481 76.2465 31.6064 75.7043C31.1647 75.1621 30.8488 74.5287 30.6815 73.8496C30.5141 73.1706 30.4996 72.4629 30.6388 71.7776L32.6157 62.1192C32.9811 60.2979 33.8771 58.6253 35.1908 57.3118L59.9934 32.5093C60.6159 31.8864 61.3552 31.3923 62.1688 31.0551C62.9823 30.718 63.8544 30.5445 64.7351 30.5445C65.6157 30.5445 66.4878 30.718 67.3013 31.0551C68.1149 31.3923 68.8542 31.8864 69.4767 32.5093L75.3126 38.3452C75.9355 38.9677 76.4296 39.7069 76.7667 40.5205C77.1039 41.3341 77.2774 42.2062 77.2774 43.0868C77.2774 43.9675 77.1039 44.8395 76.7667 45.6531C76.4296 46.4667 75.9355 47.2059 75.3126 47.8285L50.51 72.6311C49.2068 73.9408 47.5524 74.8453 45.7465 75.2354L36.2631 77.2925C35.93 77.365 35.5901 77.4016 35.2492 77.4019L35.2565 77.4457Z" fill="#2D60A4"/>
<path d="M64.7499 32.2248C65.4101 32.2215 66.0644 32.3487 66.6754 32.5991C67.2863 32.8494 67.8417 33.2181 68.3098 33.6838L74.1457 39.5197C75.0874 40.4621 75.6164 41.74 75.6164 43.0723C75.6164 44.4046 75.0874 45.6824 74.1457 46.6249L49.3431 71.4275C48.2723 72.5227 46.9062 73.283 45.4111 73.6159L35.9278 75.6731C35.7123 75.7217 35.4921 75.7462 35.2712 75.7461C34.8214 75.7443 34.3776 75.6428 33.9717 75.4488C33.5659 75.2549 33.2081 74.9733 32.9241 74.6245C32.6402 74.2756 32.4371 73.8681 32.3296 73.4314C32.2221 72.9946 32.2127 72.5394 32.3022 72.0986L34.2718 62.4402C34.5778 60.9474 35.316 59.5774 36.3947 58.501L61.1973 33.6984C62.1416 32.761 63.4192 32.2363 64.7499 32.2394V32.2248ZM64.7499 28.8838C63.6495 28.8801 62.5592 29.0948 61.5425 29.5156C60.5257 29.9363 59.6025 30.5547 58.8264 31.3348L34.0238 56.1374C32.4799 57.6749 31.4242 59.634 30.9891 61.7691L29.0123 71.4348C28.8233 72.3637 28.8429 73.3229 29.0696 74.2433C29.2963 75.1637 29.7246 76.0223 30.3233 76.7572C30.9221 77.4921 31.6765 78.0849 32.5322 78.4928C33.3878 78.9008 34.3233 79.1137 35.2712 79.1163C35.7322 79.115 36.1918 79.0661 36.6427 78.9704L46.126 76.9132C48.2441 76.4479 50.1852 75.3875 51.7212 73.8567L76.5238 49.0541C77.303 48.2762 77.9213 47.3524 78.3431 46.3353C78.7649 45.3183 78.982 44.228 78.982 43.127C78.982 42.0259 78.7649 40.9357 78.3431 39.9187C77.9213 38.9016 77.303 37.9778 76.5238 37.1999L70.6879 31.364C69.9108 30.5827 68.9866 29.9631 67.9686 29.5411C66.9506 29.1192 65.8591 28.9032 64.7572 28.9056L64.7499 28.8838Z" fill="white"/>
<path d="M64.9979 44.7371L44.2979 65.4372L50.0235 71.1628L70.7236 50.4628L64.9979 44.7371Z" fill="#2D60A4"/>
<path d="M49.4014 72.0329L35.5703 58.2018" stroke="white" stroke-width="3" stroke-linejoin="round"/>
<path d="M71.534 49.9003L57.7029 36.0692" stroke="white" stroke-width="4.6" stroke-linejoin="round"/>
<path d="M35.9204 75.695L40.2098 74.7685L33.1849 67.7435L32.2949 72.1205C32.193 72.6161 32.2167 73.1292 32.3637 73.6134C32.5108 74.0975 32.7766 74.5371 33.1369 74.8924C33.4971 75.2476 33.9405 75.5071 34.4267 75.6473C34.9128 75.7874 35.4263 75.8038 35.9204 75.695Z" fill="white"/>
<path d="M43.3539 64.5191L64.312 43.5536" stroke="white" stroke-width="4.6" stroke-linejoin="round"/>
<path d="M47.6798 52.045L56.3461 43.4735" stroke="#2D60A4" stroke-width="4.6" stroke-linecap="round" stroke-linejoin="round"/>
<path d="M64.0932 35.9524C64.3564 35.7473 64.6771 35.6294 65.0105 35.615C65.3439 35.6006 65.6735 35.6905 65.9534 35.8722" stroke="#2D60A4" stroke-width="4.6" stroke-linecap="round" stroke-linejoin="round"/>
</svg>
