<svg width="108" height="108" viewBox="0 0 108 108" fill="none" xmlns="http://www.w3.org/2000/svg">
<circle cx="54" cy="54" r="54" fill="#2D60A4"/>
<path d="M47.6352 73.4149C47.6352 74.9614 47.1765 76.4732 46.3172 77.7589C45.4578 79.0447 44.2365 80.0467 42.8076 80.6382C41.3786 81.2297 39.8064 81.3841 38.2897 81.0818C36.7731 80.7796 35.3801 80.0343 34.2871 78.9402C33.1941 77.8461 32.4501 76.4525 32.1493 74.9355C31.8485 73.4186 32.0044 71.8465 32.5972 70.4181C33.19 68.9898 34.1932 67.7693 35.4798 66.9112C36.7663 66.0531 38.2785 65.5959 39.825 65.5973C40.8513 65.5973 41.8675 65.7996 42.8156 66.1926C43.7636 66.5855 44.6249 67.1615 45.3503 67.8875C46.0756 68.6135 46.6507 69.4754 47.0428 70.4238C47.4349 71.3723 47.6362 72.3887 47.6352 73.4149Z" fill="#2D60A4" stroke="white" stroke-width="3" stroke-linejoin="round"/>
<path d="M47.6353 73.0892V40.9304" stroke="white" stroke-width="3" stroke-linejoin="round"/>
<path d="M70.5624 65.1606C70.5624 66.7071 70.1037 68.2188 69.2444 69.5046C68.385 70.7904 67.1636 71.7924 65.7347 72.3838C64.3058 72.9753 62.7336 73.1297 61.2169 72.8275C59.7002 72.5252 58.3073 71.7799 57.2143 70.6859C56.1212 69.5918 55.3773 68.1982 55.0765 66.6812C54.7757 65.1642 54.9315 63.5922 55.5244 62.1638C56.1172 60.7355 57.1204 59.515 58.407 58.6569C59.6935 57.7988 61.2057 57.3415 62.7522 57.343C63.7784 57.343 64.7947 57.5452 65.7427 57.9382C66.6908 58.3312 67.5521 58.9071 68.2774 59.6332C69.0028 60.3592 69.5779 61.2211 69.97 62.1695C70.3621 63.1179 70.5634 64.1343 70.5624 65.1606Z" fill="#2D60A4" stroke="white" stroke-width="3" stroke-linejoin="round"/>
<path d="M70.57 64.2056V35.6077" stroke="white" stroke-width="3" stroke-linejoin="round"/>
<path d="M70.5625 39.9532L47.613 45.6906V40.0199C47.6145 38.821 48.0157 37.6568 48.7532 36.7115C49.4906 35.7662 50.5222 35.0938 51.6847 34.8007L66.4908 31.0992C66.9737 30.9775 67.4781 30.9677 67.9654 31.0704C68.4527 31.1731 68.9101 31.3857 69.3028 31.692C69.6955 31.9983 70.0131 32.3902 70.2314 32.8379C70.4497 33.2855 70.5629 33.7771 70.5625 34.2751V39.9532Z" fill="#2D60A4" stroke="white" stroke-width="3" stroke-linejoin="round"/>
<path d="M39.4475 71.4162C39.9868 71.4165 40.5103 71.5986 40.9334 71.9331C41.3565 72.2676 41.6546 72.7349 41.7794 73.2596" stroke="#2D60A4" stroke-width="4.6" stroke-linecap="round" stroke-linejoin="round"/>
<path d="M62.7078 62.9619C63.2465 62.9605 63.7698 63.1411 64.1931 63.4743C64.6163 63.8075 64.9147 64.2739 65.0398 64.7979" stroke="#2D60A4" stroke-width="4.6" stroke-linecap="round" stroke-linejoin="round"/>
</svg>
