<svg width="108" height="108" viewBox="0 0 108 108" fill="none" xmlns="http://www.w3.org/2000/svg">
<circle cx="54" cy="54" r="54" fill="#2D60A4"/>
<path d="M51.8673 74.9449C50.9057 74.9416 49.9616 74.6865 49.1292 74.2049C49.0339 74.1468 48.9424 74.0825 48.8554 74.0125L38.1919 64.6958H30.666C29.0566 64.6958 27.5132 64.0565 26.3752 62.9185C25.2372 61.7805 24.5979 60.237 24.5979 58.6277V49.4145C24.5979 47.8052 25.2372 46.2617 26.3752 45.1238C27.5132 43.9858 29.0566 43.3465 30.666 43.3465H38.1919L48.8554 34.0297C48.9387 33.9549 49.0306 33.8903 49.1292 33.8373C49.962 33.3548 50.9072 33.1003 51.8696 33.0994C52.832 33.0985 53.7777 33.3513 54.6113 33.8322C55.445 34.3132 56.1371 35.0054 56.618 35.839C57.099 36.6727 57.3517 37.6184 57.3508 38.5808V69.4688C57.3468 70.9213 56.7677 72.313 55.7399 73.3393C54.7122 74.3656 53.3197 74.943 51.8673 74.9449Z" fill="#2D60A4"/>
<path d="M51.8674 34.7994C52.3646 34.7984 52.8571 34.8955 53.3167 35.0851C53.7764 35.2747 54.1941 35.5531 54.5461 35.9044C54.898 36.2556 55.1772 36.6728 55.3677 37.1321C55.5582 37.5913 55.6562 38.0837 55.6562 38.5809V69.4689C55.6562 70.4738 55.257 71.4375 54.5465 72.148C53.8359 72.8586 52.8722 73.2578 51.8674 73.2578C51.2033 73.2576 50.5515 73.0786 49.9803 72.7397L38.8284 62.9938H30.6882C29.5303 62.9938 28.4198 62.5338 27.601 61.715C26.7822 60.8962 26.3222 59.7857 26.3222 58.6278V49.4146C26.3222 48.2567 26.7822 47.1461 27.601 46.3273C28.4198 45.5085 29.5303 45.0486 30.6882 45.0486H38.8284L49.9803 35.31C50.5522 34.9737 51.204 34.7974 51.8674 34.7994ZM51.8674 31.3954C50.6076 31.3975 49.3703 31.7292 48.2783 32.3574C48.0867 32.4686 47.9058 32.5974 47.7381 32.7422L37.5555 41.6223H30.666C28.6059 41.6243 26.6307 42.4435 25.1739 43.9003C23.7172 45.357 22.8979 47.3323 22.8959 49.3924V58.5982C22.8979 60.6583 23.7172 62.6335 25.1739 64.0903C26.6307 65.547 28.6059 66.3663 30.666 66.3683H37.5555L47.7381 75.2484C47.9039 75.3956 48.085 75.5246 48.2783 75.6332C49.3655 76.2653 50.5998 76.6003 51.8574 76.6046C53.115 76.609 54.3516 76.2825 55.4431 75.658C56.5347 75.0335 57.4428 74.1329 58.0764 73.0466C58.71 71.9603 59.0467 70.7265 59.0529 69.4689V38.5809C59.0509 36.6758 58.2932 34.8492 56.9461 33.5021C55.599 32.155 53.7725 31.3973 51.8674 31.3954Z" fill="white"/>
<path d="M26.3 54.2542V58.6203C26.3 59.7782 26.76 60.8888 27.5788 61.7075C28.3976 62.5263 29.5081 62.9863 30.666 62.9863H38.8062L49.9581 72.7175C50.5328 73.0501 51.1849 73.2256 51.8489 73.2262C52.5129 73.2269 53.1653 73.0527 53.7406 72.7211C54.3159 72.3896 54.7938 71.9125 55.1262 71.3376C55.4585 70.7628 55.6337 70.1106 55.634 69.4466V54.2542H26.3Z" fill="#2D60A4"/>
<path d="M31.754 49.9548H37.6445" stroke="white" stroke-width="3" stroke-linecap="round" stroke-linejoin="round"/>
<path d="M45.5255 45.9439L50.0174 42.1181" stroke="white" stroke-width="3" stroke-linecap="round" stroke-linejoin="round"/>
<path d="M65.7723 48.4896C66.8965 50.0971 67.4994 52.0114 67.4994 53.973C67.4994 55.9347 66.8965 57.849 65.7723 59.4565" stroke="white" stroke-width="3" stroke-linecap="round" stroke-linejoin="round"/>
<path d="M71.6701 41.4003C74.4377 44.3603 76.1101 49.7032 76.1101 53.9805C76.1101 58.2577 74.3933 63.6968 71.5739 66.6421" stroke="white" stroke-width="3" stroke-linecap="round" stroke-linejoin="round"/>
<path d="M77.4051 36.0056C81.8451 40.1941 84.6498 47.5128 84.6498 53.9657C84.6498 60.4186 81.8303 67.8335 77.3015 72.0294" stroke="white" stroke-width="3" stroke-linecap="round" stroke-linejoin="round"/>
</svg>
