<svg width="108" height="108" viewBox="0 0 108 108" fill="none" xmlns="http://www.w3.org/2000/svg">
<circle cx="54" cy="54" r="54" fill="#2D60A4"/>
<path d="M65.8296 77.4538C65.0491 77.4541 64.2803 77.2638 63.5902 76.8993L55.7701 72.7973C55.129 72.4556 54.4135 72.2773 53.6871 72.2783C52.9639 72.2783 52.2515 72.454 51.6112 72.7902L43.7911 76.8993C42.9975 77.3181 42.1025 77.506 41.2076 77.4418C40.3127 77.3775 39.4537 77.0636 38.7281 76.5358C38.0026 76.0079 37.4396 75.2872 37.103 74.4555C36.7665 73.6238 36.6698 72.7143 36.824 71.8305L38.3099 63.1359C38.4314 62.421 38.3778 61.6873 38.1537 60.9977C37.9296 60.308 37.5417 59.683 37.0231 59.1761L30.7101 53.0266C30.068 52.4005 29.614 51.6072 29.3992 50.7365C29.1845 49.8658 29.2177 48.9523 29.4951 48.0995C29.7725 47.2466 30.283 46.4884 30.9688 45.9106C31.6547 45.3327 32.4885 44.9584 33.3761 44.8297L42.0991 43.5572C42.8168 43.4529 43.4984 43.1758 44.0854 42.7498C44.6724 42.3238 45.1471 41.7616 45.4688 41.1116L49.3718 33.1991C49.7689 32.3957 50.3828 31.7193 51.1441 31.2464C51.9054 30.7735 52.7837 30.5229 53.68 30.5229C54.5762 30.5229 55.4545 30.7735 56.2158 31.2464C56.9771 31.7193 57.591 32.3957 57.9881 33.1991L61.8982 41.1116C62.2172 41.7622 62.6903 42.3251 63.2763 42.7513C63.8624 43.1775 64.5436 43.4541 65.2608 43.5572L73.9909 44.8297C74.8785 44.9584 75.7123 45.3327 76.3982 45.9106C77.084 46.4884 77.5945 47.2466 77.8719 48.0995C78.1493 48.9523 78.1825 49.8658 77.9678 50.7365C77.7531 51.6072 77.299 52.4005 76.6569 53.0266L70.3439 59.1761C69.8235 59.6834 69.4339 60.3093 69.2085 61.0003C68.9832 61.6912 68.9288 62.4265 69.05 63.143L70.543 71.8305C70.6621 72.5205 70.629 73.2282 70.446 73.9041C70.263 74.58 69.9345 75.2077 69.4835 75.7433C69.0325 76.279 68.4699 76.7096 67.835 77.0051C67.2002 77.3005 66.5085 77.4537 65.8082 77.4538H65.8296Z" fill="#2D60A4"/>
<path d="M53.6658 32.154C54.2587 32.15 54.8405 32.3142 55.3438 32.6275C55.8472 32.9408 56.2514 33.3905 56.5095 33.9242L60.4124 41.8367C60.8526 42.7235 61.5009 43.4905 62.3019 44.0723C63.1028 44.6542 64.0327 45.0335 65.0121 45.1781L73.7422 46.4435C74.3279 46.5285 74.8782 46.7758 75.3307 47.1573C75.7832 47.5389 76.1199 48.0395 76.3026 48.6025C76.4853 49.1655 76.5068 49.7684 76.3646 50.3429C76.2225 50.9175 75.9223 51.4408 75.4981 51.8536L69.1852 58.0102C68.4761 58.7007 67.9457 59.5534 67.6398 60.4948C67.3338 61.4361 67.2616 62.4377 67.4292 63.4132L68.9221 72.1077C69.0227 72.6916 68.9577 73.2919 68.7345 73.8408C68.5112 74.3896 68.1387 74.8648 67.6591 75.2127C67.1795 75.5606 66.612 75.7671 66.021 75.8089C65.43 75.8506 64.8391 75.726 64.3154 75.449L56.4952 71.347C55.6189 70.8839 54.6428 70.6417 53.6516 70.6417C52.6604 70.6417 51.6842 70.8839 50.8079 71.347L42.9878 75.449C42.5349 75.6909 42.0296 75.8178 41.5162 75.8187C41.0541 75.818 40.5978 75.7166 40.179 75.5215C39.7601 75.3264 39.3889 75.0423 39.0911 74.689C38.7933 74.3357 38.5762 73.9217 38.4547 73.4759C38.3333 73.0301 38.3106 72.5632 38.3881 72.1077L39.8811 63.4132C40.0487 62.4377 39.9764 61.4361 39.6705 60.4948C39.3646 59.5534 38.8342 58.7007 38.1251 58.0102L31.805 51.8536C31.3834 51.4392 31.0857 50.9154 30.9454 50.3411C30.8052 49.7667 30.8279 49.1647 31.0111 48.6026C31.1943 48.0405 31.5306 47.5406 31.9824 47.1592C32.4341 46.7778 32.9832 46.5299 33.5681 46.4435L42.2911 45.1781C43.2705 45.0335 44.2003 44.6542 45.0013 44.0723C45.8022 43.4905 46.4505 42.7235 46.8907 41.8367L50.8008 33.9242C51.0575 33.3894 51.4614 32.9388 51.965 32.6253C52.4687 32.3118 53.0512 32.1483 53.6445 32.154H53.6658ZM53.6445 28.8838C52.4414 28.88 51.2616 29.2155 50.2405 29.8518C49.2195 30.4881 48.3985 31.3994 47.8718 32.481L43.9688 40.3865C43.7657 40.7991 43.4656 41.1563 43.0941 41.4275C42.7227 41.6987 42.291 41.8757 41.8361 41.9434L33.1273 43.2088C31.9397 43.3843 30.8248 43.8882 29.9084 44.6637C28.992 45.4391 28.3105 46.4552 27.9408 47.5974C27.5712 48.7395 27.5281 49.9623 27.8165 51.1276C28.1048 52.293 28.7131 53.3545 29.5727 54.1925L35.8928 60.3491C36.2229 60.6709 36.4697 61.0681 36.6121 61.5065C36.7545 61.9449 36.7883 62.4114 36.7104 62.8658L35.2174 71.5532C34.9975 72.7411 35.1184 73.9669 35.566 75.089C36.0137 76.2111 36.7699 77.1835 37.7471 77.8937C38.7244 78.604 39.8827 79.023 41.0882 79.1024C42.2936 79.1819 43.4969 78.9184 44.5589 78.3425L52.379 74.2405C52.7847 74.0271 53.2359 73.9149 53.6942 73.9135C54.155 73.9137 54.6088 74.0259 55.0165 74.2405L62.8367 78.3425C63.7606 78.8328 64.7907 79.0891 65.8367 79.089C66.775 79.0879 67.7017 78.8821 68.5522 78.486C69.4027 78.0898 70.1564 77.5129 70.7609 76.7953C71.3654 76.0778 71.8061 75.237 72.0521 74.3316C72.2981 73.4262 72.3435 72.478 72.1852 71.5532L70.6923 62.8586C70.6156 62.4054 70.6499 61.9403 70.7923 61.5033C70.9347 61.0662 71.1809 60.6702 71.5099 60.3491L77.8228 54.1996C78.6845 53.3619 79.2946 52.2998 79.5842 51.1334C79.8738 49.9671 79.8313 48.743 79.4614 47.5995C79.0916 46.456 78.4093 45.4388 77.4915 44.6629C76.5738 43.887 75.4573 43.3833 74.2682 43.2088L65.5381 41.9434C65.0832 41.8757 64.6516 41.6987 64.2801 41.4275C63.9086 41.1563 63.6085 40.7991 63.4054 40.3865L59.4313 32.481C58.9041 31.3983 58.082 30.4863 57.0596 29.8499C56.0371 29.2136 54.8559 28.8787 53.6516 28.8838H53.6445Z" fill="white"/>
<path d="M53.687 32.1611C53.0944 32.1539 52.512 32.316 52.0082 32.6283C51.5045 32.9406 51.1004 33.3902 50.8433 33.9242L46.9333 41.8367C46.4931 42.7235 45.8448 43.4905 45.0438 44.0723C44.2429 44.6542 43.313 45.0335 42.3336 45.1781L33.6106 46.4435C33.0258 46.5299 32.4766 46.7778 32.0249 47.1592C31.5732 47.5406 31.2368 48.0404 31.0537 48.6026C30.8705 49.1647 30.8477 49.7667 30.988 50.341C31.1282 50.9154 31.4259 51.4392 31.8476 51.8536L38.1676 58.0102C38.8767 58.7007 39.4071 59.5534 39.7131 60.4947C40.019 61.4361 40.0912 62.4377 39.9236 63.4131L38.4307 72.1077C38.331 72.6906 38.3964 73.2898 38.6194 73.8375C38.8424 74.3852 39.2141 74.8596 39.6926 75.2072C40.171 75.5548 40.7371 75.7616 41.3269 75.8043C41.9168 75.8471 42.5068 75.724 43.0303 75.449L50.8504 71.347C51.7256 70.8803 52.7022 70.6361 53.6941 70.6361L53.687 32.1611Z" fill="#2D60A4"/>
<path d="M54 48C54 48 55.9053 52.1375 58.2015 56.204" stroke="white" stroke-width="3" stroke-linecap="round" stroke-linejoin="round"/>
</svg>
