<svg width="64" height="64" viewBox="0 0 64 64" fill="none" xmlns="http://www.w3.org/2000/svg">
<circle cx="32" cy="32" r="31" fill="#2D60A4" stroke="white" stroke-width="2"/>
<path d="M32.7874 46.6457C32.7874 47.0795 32.4339 47.4331 32 47.4331C31.5661 47.4331 31.2126 47.0795 31.2126 46.6457C31.2126 46.2118 31.5661 45.8583 32 45.8583C32.4339 45.8583 32.7874 46.2118 32.7874 46.6457ZM41.6063 33.2598V26.1732C41.6063 25.7384 41.9589 25.3858 42.3937 25.3858H48.063C48.4978 25.3858 48.8504 25.7384 48.8504 26.1732V33.2598C48.8504 33.6946 48.4978 34.0472 48.063 34.0472H42.3937C41.9589 34.0472 41.6063 33.6946 41.6063 33.2598ZM43.1811 32.4724H47.2756V26.9606H43.1811V32.4724ZM41.6063 36.4095C41.6063 35.9746 41.9589 35.622 42.3937 35.622H48.063C48.4978 35.622 48.8504 35.9746 48.8504 36.4095V43.4961C48.8504 43.9309 48.4978 44.2835 48.063 44.2835H42.3937C41.9589 44.2835 41.6063 43.9309 41.6063 43.4961V36.4095ZM43.1811 42.7087H47.2756V37.1969H43.1811V42.7087ZM32.7874 33.2598V26.1732C32.7874 25.7384 33.14 25.3858 33.5748 25.3858H39.2441C39.6789 25.3858 40.0315 25.7384 40.0315 26.1732V33.2598C40.0315 33.6946 39.6789 34.0472 39.2441 34.0472H33.5748C33.14 34.0472 32.7874 33.6946 32.7874 33.2598ZM34.3622 32.4724H38.4567V26.9606H34.3622V32.4724ZM39.2441 44.2835H33.5748C33.14 44.2835 32.7874 43.9309 32.7874 43.4961V36.4095C32.7874 35.9746 33.14 35.622 33.5748 35.622H39.2441C39.6789 35.622 40.0315 35.9746 40.0315 36.4095V43.4961C40.0315 43.9309 39.6789 44.2835 39.2441 44.2835ZM38.4567 37.1969H34.3622V42.7087H38.4567V37.1969ZM23.9685 33.2598V26.1732C23.9685 25.7384 24.3211 25.3858 24.7559 25.3858H30.4252C30.86 25.3858 31.2126 25.7384 31.2126 26.1732V33.2598C31.2126 33.6946 30.86 34.0472 30.4252 34.0472H24.7559C24.3211 34.0472 23.9685 33.6946 23.9685 33.2598ZM25.5433 32.4724H29.6378V26.9606H25.5433V32.4724ZM31.2126 43.4961C31.2126 43.9309 30.86 44.2835 30.4252 44.2835H24.7559C24.3211 44.2835 23.9685 43.9309 23.9685 43.4961V36.4095C23.9685 35.9746 24.3211 35.622 24.7559 35.622H30.4252C30.86 35.622 31.2126 35.9746 31.2126 36.4095V43.4961ZM29.6378 37.1969H25.5433V42.7087H29.6378V37.1969ZM16.7244 19.874C16.7244 20.3089 16.3719 20.6614 15.937 20.6614C15.5021 20.6614 15.1496 20.3089 15.1496 19.874C15.1496 19.4391 15.5021 19.0866 15.937 19.0866C16.3719 19.0866 16.7244 19.4391 16.7244 19.874ZM20.2677 19.874C20.2677 20.3089 19.9152 20.6614 19.4803 20.6614C19.0454 20.6614 18.6929 20.3089 18.6929 19.874C18.6929 19.4391 19.0454 19.0866 19.4803 19.0866C19.9152 19.0866 20.2677 19.4391 20.2677 19.874ZM23.811 19.874C23.811 20.3089 23.4585 20.6614 23.0236 20.6614C22.5887 20.6614 22.2362 20.3089 22.2362 19.874C22.2362 19.4391 22.5887 19.0866 23.0236 19.0866C23.4585 19.0866 23.811 19.4391 23.811 19.874ZM13.576 32.5332C13.6081 33.3854 14.3354 34.0472 15.1883 34.0472H21.6063C22.0412 34.0472 22.3937 34.3998 22.3937 34.8346V45.8583H28.4285C28.8472 45.8583 29.2138 46.1732 29.2423 46.591C29.2735 47.0494 28.9086 47.4331 28.4567 47.4331H12.7874C12.3525 47.4331 12 47.0806 12 46.6457V18.2992C12 16.9946 13.0576 15.937 14.3622 15.937H49.6378C50.9424 15.937 52 16.9946 52 18.2992V46.6457C52 47.0806 51.6475 47.4331 51.2126 47.4331H35.5433C35.0914 47.4331 34.7265 47.0494 34.7578 46.591C34.7862 46.1732 35.1528 45.8583 35.5715 45.8583H50.4252V23.811H22.3937V28.9291C22.3937 29.364 22.0412 29.7165 21.6063 29.7165H15.1496C14.2611 29.7165 13.5421 30.4561 13.576 31.352V32.5332ZM13.5748 22.2362H50.4252V18.2992C50.4252 17.865 50.072 17.5118 49.6378 17.5118H14.3622C13.928 17.5118 13.5748 17.865 13.5748 18.2992V22.2362ZM20.8189 45.8583V41.5276H13.5748V45.8583H20.8189ZM20.8189 35.622H15.1496C14.5761 35.622 14.0384 35.4672 13.5748 35.1983V39.9528H20.8189V35.622ZM20.8189 23.811H13.5748V28.5655C14.0384 28.2965 14.5761 28.1417 15.1496 28.1417H20.8189V23.811Z" fill="white"/>
</svg>
