<svg width="286" height="51" viewBox="0 0 286 51" fill="none" xmlns="http://www.w3.org/2000/svg">
<path d="M67.6 18H70.12L71.56 14.62H78.18L79.6 18H82.2L76.04 3.9H73.76L67.6 18ZM72.46 12.44L74.86 6.84L77.28 12.44H72.46ZM86.4808 21.26C88.1808 21.26 89.1208 20.46 89.9608 18.3L94.1608 7.44H91.6408L88.9008 15.28L85.9008 7.44H83.3208L87.7208 18C87.3208 18.92 86.9008 19.22 86.2208 19.22C85.7208 19.22 85.2408 19.06 84.8008 18.82L83.9808 20.62C84.7208 21.02 85.4608 21.26 86.4808 21.26ZM95.0148 20.54H97.0348L97.2748 18H104.675V20.54H106.695L107.015 15.92H105.515V7.44H97.3348V8.74C97.3348 11.7 97.0348 14.16 96.1548 15.92H95.0148V20.54ZM98.6348 15.92C99.2548 14.62 99.6148 12.84 99.6148 10.92V9.52H103.095V15.92H98.6348ZM109.028 18H111.308L116.328 10.96V18H118.668V7.44H116.388C114.708 9.8 113.048 12.16 111.388 14.52V7.44H109.028V18ZM126.724 18.24C129.984 18.24 132.384 15.74 132.384 12.74C132.384 9.68 130.004 7.22 126.764 7.22C123.524 7.22 121.124 9.72 121.124 12.74C121.124 15.78 123.504 18.24 126.724 18.24ZM126.764 16.14C124.884 16.14 123.544 14.58 123.544 12.74C123.544 10.86 124.784 9.34 126.724 9.34C128.624 9.34 129.964 10.88 129.964 12.74C129.964 14.6 128.724 16.14 126.764 16.14ZM134.848 18H137.248V15.46L138.968 13.64L142.168 18H145.028L140.588 11.88L144.688 7.44H141.848L137.248 12.5V7.44H134.848V18ZM146.704 18H149.124V13.74H153.784V18H156.204V7.44H153.784V11.72H149.124V7.44H146.704V18ZM159.243 18H161.523L166.543 10.96V18H168.883V7.44H166.603C164.923 9.8 163.263 12.16 161.603 14.52V7.44H159.243V18ZM171.918 18H174.338V9.52H179.398V7.44H171.918V18ZM181.313 18H183.593L188.613 10.96V18H190.953V7.44H188.673C186.993 9.8 185.333 12.16 183.673 14.52V7.44H181.313V18ZM75.3 43.24C77.92 43.24 79.52 42.28 80.98 40.76L79.4 39.16C78.2 40.28 77.1 40.98 75.38 40.98C72.7 40.98 70.76 38.74 70.76 36C70.76 33.22 72.7 31.02 75.38 31.02C76.98 31.02 78.18 31.72 79.3 32.76L80.88 30.94C79.54 29.66 77.98 28.76 75.4 28.76C71.16 28.76 68.18 32.02 68.18 36C68.18 40.06 71.22 43.24 75.3 43.24ZM83.2056 43.12C85.5456 43.12 86.9856 42.18 86.9856 34.52H90.2856V43H92.7056V32.44H84.7256C84.7256 40.48 83.8856 41.08 82.6656 41.08C82.5056 41.08 82.1256 41.04 81.9656 41L81.7856 42.98C82.1456 43.04 82.8256 43.12 83.2056 43.12ZM97.9066 46.26C99.6066 46.26 100.547 45.46 101.387 43.3L105.587 32.44H103.067L100.327 40.28L97.3266 32.44H94.7466L99.1466 43C98.7466 43.92 98.3266 44.22 97.6466 44.22C97.1466 44.22 96.6666 44.06 96.2266 43.82L95.4066 45.62C96.1466 46.02 96.8866 46.26 97.9066 46.26ZM107.661 43H122.701V32.44H120.281V40.92H116.381V32.44H113.981V40.92H110.081V32.44H107.661V43ZM134.607 43V36.74C134.607 33.92 133.087 32.28 129.967 32.28C128.247 32.28 127.107 32.64 125.947 33.16L126.607 35.1C127.567 34.7 128.447 34.44 129.627 34.44C131.307 34.44 132.227 35.24 132.227 36.7V36.9C131.407 36.64 130.587 36.46 129.307 36.46C126.847 36.46 125.027 37.58 125.027 39.92C125.027 42.08 126.787 43.22 128.787 43.22C130.387 43.22 131.487 42.56 132.207 41.7V43H134.607ZM132.267 39.18C132.267 40.5 131.067 41.4 129.467 41.4C128.327 41.4 127.427 40.84 127.427 39.84C127.427 38.78 128.327 38.16 129.847 38.16C130.787 38.16 131.647 38.34 132.267 38.58V39.18ZM142.325 31.22C144.025 31.22 145.185 30.14 145.445 28.44L143.985 28.16C143.725 29 143.225 29.52 142.325 29.52C141.425 29.52 140.925 29 140.665 28.16L139.185 28.44C139.445 30.14 140.625 31.22 142.325 31.22ZM137.485 43H139.765L144.785 35.96V43H147.125V32.44H144.845C143.165 34.8 141.505 37.16 139.845 39.52V32.44H137.485V43ZM156.157 43H161.637C164.037 43 165.537 41.92 165.537 40.14C165.537 38.64 164.637 37.86 163.357 37.5C164.257 37.1 165.057 36.42 165.057 35.08C165.057 33.46 163.677 32.44 161.577 32.44H156.157V43ZM158.537 41.08V38.44H161.157C162.457 38.44 163.077 38.96 163.077 39.72C163.077 40.54 162.457 41.08 161.277 41.08H158.537ZM158.537 36.8V34.3H161.057C162.137 34.3 162.597 34.82 162.597 35.5C162.597 36.26 162.037 36.8 161.017 36.8H158.537ZM174.23 43H184.05V40.76H176.69V29H174.23V43ZM191.353 43.24C194.613 43.24 197.013 40.74 197.013 37.74C197.013 34.68 194.633 32.22 191.393 32.22C188.153 32.22 185.753 34.72 185.753 37.74C185.753 40.78 188.133 43.24 191.353 43.24ZM191.393 41.14C189.513 41.14 188.173 39.58 188.173 37.74C188.173 35.86 189.413 34.34 191.353 34.34C193.253 34.34 194.593 35.88 194.593 37.74C194.593 39.6 193.353 41.14 191.393 41.14ZM203.117 43.22C204.757 43.22 205.737 42.36 206.417 41.36V43H208.837V32.44H206.417V38.4C206.417 40.04 205.437 41.02 204.037 41.02C202.597 41.02 201.777 40.08 201.777 38.44V32.44H199.357V39.16C199.357 41.62 200.737 43.22 203.117 43.22ZM216.239 43.22C217.959 43.22 219.059 42.34 219.839 41.24V43H222.259V28.4H219.839V34.08C219.079 33.1 217.979 32.22 216.239 32.22C213.719 32.22 211.339 34.2 211.339 37.7C211.339 41.24 213.759 43.22 216.239 43.22ZM216.819 41.12C215.179 41.12 213.779 39.78 213.779 37.74C213.779 35.6 215.159 34.32 216.819 34.32C218.439 34.32 219.879 35.66 219.879 37.7C219.879 39.76 218.439 41.12 216.819 41.12ZM231.278 43.22C233.798 43.22 236.198 41.24 236.198 37.74C236.198 34.2 233.778 32.22 231.278 32.22C229.578 32.22 228.478 33.1 227.698 34.2V28.4H225.278V43H227.698V41.36C228.438 42.34 229.538 43.22 231.278 43.22ZM230.718 41.12C229.078 41.12 227.638 39.78 227.638 37.74C227.638 35.68 229.078 34.32 230.718 34.32C232.358 34.32 233.738 35.66 233.738 37.7C233.738 39.82 232.378 41.12 230.718 41.12ZM243.696 43.24C246.956 43.24 249.356 40.74 249.356 37.74C249.356 34.68 246.976 32.22 243.736 32.22C240.496 32.22 238.096 34.72 238.096 37.74C238.096 40.78 240.476 43.24 243.696 43.24ZM243.736 41.14C241.856 41.14 240.516 39.58 240.516 37.74C240.516 35.86 241.756 34.34 243.696 34.34C245.596 34.34 246.936 35.88 246.936 37.74C246.936 39.6 245.696 41.14 243.736 41.14ZM256.841 43.24C260.101 43.24 262.501 40.74 262.501 37.74C262.501 34.68 260.121 32.22 256.881 32.22C253.641 32.22 251.241 34.72 251.241 37.74C251.241 40.78 253.621 43.24 256.841 43.24ZM256.881 41.14C255.001 41.14 253.661 39.58 253.661 37.74C253.661 35.86 254.901 34.34 256.841 34.34C258.741 34.34 260.081 35.88 260.081 37.74C260.081 39.6 258.841 41.14 256.881 41.14ZM264.965 43H267.385V39.98L268.865 38.44L272.045 43H274.845L270.505 36.74L274.705 32.44H271.765L267.385 37.12V28.4H264.965V43Z" fill="white"/>
<path fill-rule="evenodd" clip-rule="evenodd" d="M6.50247 0.424363L25.0436 8.14226L44.3856 0.0909735C44.9877 -0.159627 45.679 0.125284 45.9296 0.727315L45.9437 0.761362C46.1944 1.36346 45.9095 2.05471 45.3074 2.30531L25.5047 10.5484C25.2282 10.6636 24.9327 10.6657 24.6699 10.5759C24.6255 10.5632 24.5813 10.5479 24.5376 10.5297L5.58076 2.6387C4.97866 2.3881 4.69375 1.69685 4.94435 1.09475L4.95852 1.0607C5.20919 0.458673 5.90044 0.173697 6.50247 0.424363ZM0.0277321 4.44263C-0.00060807 4.60047 -0.00684005 4.75909 0.00726442 4.91457V36.2016C0.00726442 37.0283 0.573674 37.7228 1.33958 37.9181L24.2555 47.551C24.4987 47.6766 24.7747 47.7476 25.0673 47.7476C26.0456 47.7476 26.8386 46.9546 26.8386 45.9763V15.7208L46.4536 7.43501V34.9675L42.9468 36.4189C42.1879 36.733 41.7618 37.5115 41.8615 38.2888V43.7763L38.9073 40.0732C38.4961 39.1838 37.4428 38.7936 36.551 39.2017L29.1351 42.5956C28.2413 43.0046 27.8483 44.0608 28.2573 44.9547C28.6664 45.8485 29.7226 46.2415 30.6164 45.8324L36.7359 43.0319L42.1103 49.7687C42.4193 50.2869 42.9855 50.6341 43.6327 50.6341C44.611 50.6341 45.404 49.8411 45.404 48.8628V39.2545L48.9004 37.8074C49.6242 37.5078 50.0453 36.7857 49.9961 36.0451V4.77818C49.9961 4.62907 49.9777 4.48422 49.943 4.34586C49.9205 4.25225 49.89 4.15923 49.8513 4.06765C49.4688 3.16214 48.4247 2.73815 47.5192 3.12068L24.7259 12.7489C23.911 12.908 23.296 13.6258 23.296 14.4873V43.2863L3.54978 34.9858V7.41946L19.9154 14.2318C20.8229 14.6096 21.8648 14.1802 22.2425 13.2726C22.6203 12.3651 22.1908 11.3232 21.2834 10.9454L2.74799 3.22991C2.46945 3.04747 2.13638 2.94132 1.77852 2.94132C0.892107 2.94132 0.15769 3.59249 0.0277321 4.44263Z" fill="white"/>
</svg>
