<svg width="93" height="14" viewBox="0 0 93 14" fill="none" xmlns="http://www.w3.org/2000/svg">
<path d="M14.1866 4.9298L9.7917 4.29107L7.82706 0.308118C7.7734 0.199068 7.68512 0.110788 7.57607 0.0571283C7.30257 -0.0778871 6.97023 0.0346257 6.83348 0.308118L4.86883 4.29107L0.473912 4.9298C0.352744 4.94711 0.241962 5.00423 0.157145 5.09078C0.0546052 5.19617 -0.00189871 5.33796 4.87196e-05 5.48499C0.00199615 5.63202 0.0622356 5.77227 0.16753 5.87491L3.34732 8.97507L2.59608 13.3527C2.57846 13.4545 2.58973 13.5592 2.6286 13.655C2.66748 13.7508 2.73241 13.8337 2.81603 13.8944C2.89965 13.9552 2.99861 13.9912 3.10169 13.9986C3.20477 14.0059 3.30786 13.9843 3.39924 13.936L7.33027 11.8692L11.2613 13.936C11.3686 13.9931 11.4932 14.0122 11.6127 13.9914C11.9139 13.9395 12.1164 13.6539 12.0645 13.3527L11.3132 8.97507L14.493 5.87491C14.5796 5.79009 14.6367 5.67931 14.654 5.55814C14.7007 5.25522 14.4895 4.9748 14.1866 4.9298ZM9.97519 8.53886L10.6001 12.1791L7.33027 10.462L4.06047 12.1808L4.68535 8.54059L2.04044 5.96145L5.69624 5.43005L7.33027 2.11871L8.9643 5.43005L12.6201 5.96145L9.97519 8.53886Z" fill="#F9CE46"/>
<path d="M9.97519 8.53886L10.6001 12.1791L7.33027 10.462L4.06047 12.1808L4.68535 8.54059L2.04044 5.96145L5.69624 5.43005L7.33027 2.11871L8.9643 5.43005L12.6201 5.96145L9.97519 8.53886Z" fill="#F9CE46"/>
<path d="M33.6842 4.9298L29.2893 4.29107L27.3246 0.308118C27.271 0.199068 27.1827 0.110788 27.0737 0.0571283C26.8002 -0.0778871 26.4678 0.0346257 26.3311 0.308118L24.3664 4.29107L19.9715 4.9298C19.8503 4.94711 19.7396 5.00423 19.6547 5.09078C19.5522 5.19617 19.4957 5.33796 19.4976 5.48499C19.4996 5.63202 19.5598 5.77227 19.6651 5.87491L22.8449 8.97507L22.0937 13.3527C22.076 13.4545 22.0873 13.5592 22.1262 13.655C22.1651 13.7508 22.23 13.8337 22.3136 13.8944C22.3972 13.9552 22.4962 13.9912 22.5993 13.9986C22.7024 14.0059 22.8054 13.9843 22.8968 13.936L26.8279 11.8692L30.7589 13.936C30.8662 13.9931 30.9908 14.0122 31.1103 13.9914C31.4115 13.9395 31.614 13.6539 31.5621 13.3527L30.8108 8.97507L33.9906 5.87491C34.0771 5.79009 34.1343 5.67931 34.1516 5.55814C34.1983 5.25522 33.9871 4.9748 33.6842 4.9298ZM29.4728 8.53886L30.0977 12.1791L26.8279 10.462L23.5581 12.1808L24.1829 8.54059L21.538 5.96145L25.1938 5.43005L26.8279 2.11871L28.4619 5.43005L32.1177 5.96145L29.4728 8.53886Z" fill="#F9CE46"/>
<path d="M29.4728 8.53886L30.0977 12.1791L26.8279 10.462L23.5581 12.1808L24.1829 8.54059L21.538 5.96145L25.1938 5.43005L26.8279 2.11871L28.4619 5.43005L32.1177 5.96145L29.4728 8.53886Z" fill="#F9CE46"/>
<path d="M53.1818 4.9298L48.7869 4.29107L46.8222 0.308118C46.7686 0.199068 46.6803 0.110788 46.5712 0.0571283C46.2978 -0.0778871 45.9654 0.0346257 45.8287 0.308118L43.864 4.29107L39.4691 4.9298C39.3479 4.94711 39.2371 5.00423 39.1523 5.09078C39.0498 5.19617 38.9933 5.33796 38.9952 5.48499C38.9972 5.63202 39.0574 5.77227 39.1627 5.87491L42.3425 8.97507L41.5913 13.3527C41.5736 13.4545 41.5849 13.5592 41.6238 13.655C41.6627 13.7508 41.7276 13.8337 41.8112 13.8944C41.8948 13.9552 41.9938 13.9912 42.0969 13.9986C42.2 14.0059 42.303 13.9843 42.3944 13.936L46.3254 11.8692L50.2565 13.936C50.3638 13.9931 50.4884 14.0122 50.6079 13.9914C50.909 13.9395 51.1116 13.6539 51.0596 13.3527L50.3084 8.97507L53.4882 5.87491C53.5747 5.79009 53.6319 5.67931 53.6492 5.55814C53.6959 5.25522 53.4847 4.9748 53.1818 4.9298ZM48.9704 8.53886L49.5952 12.1791L46.3254 10.462L43.0557 12.1808L43.6805 8.54059L41.0356 5.96145L44.6914 5.43005L46.3254 2.11871L47.9595 5.43005L51.6153 5.96145L48.9704 8.53886Z" fill="#F9CE46"/>
<path d="M48.9704 8.53886L49.5952 12.1791L46.3254 10.462L43.0557 12.1808L43.6805 8.54059L41.0356 5.96145L44.6914 5.43005L46.3254 2.11871L47.9595 5.43005L51.6153 5.96145L48.9704 8.53886Z" fill="#F9CE46"/>
<path d="M72.6794 4.9298L68.2845 4.29107L66.3198 0.308118C66.2662 0.199068 66.1779 0.110788 66.0688 0.0571283C65.7953 -0.0778871 65.463 0.0346257 65.3262 0.308118L63.3616 4.29107L58.9667 4.9298C58.8455 4.94711 58.7347 5.00423 58.6499 5.09078C58.5474 5.19617 58.4909 5.33796 58.4928 5.48499C58.4948 5.63202 58.555 5.77227 58.6603 5.87491L61.8401 8.97507L61.0888 13.3527C61.0712 13.4545 61.0825 13.5592 61.1214 13.655C61.1602 13.7508 61.2252 13.8337 61.3088 13.8944C61.3924 13.9552 61.4914 13.9912 61.5945 13.9986C61.6975 14.0059 61.8006 13.9843 61.892 13.936L65.823 11.8692L69.7541 13.936C69.8614 13.9931 69.986 14.0122 70.1054 13.9914C70.4066 13.9395 70.6092 13.6539 70.5572 13.3527L69.806 8.97507L72.9858 5.87491C73.0723 5.79009 73.1294 5.67931 73.1468 5.55814C73.1935 5.25522 72.9823 4.9748 72.6794 4.9298ZM68.468 8.53886L69.0928 12.1791L65.823 10.462L62.5532 12.1808L63.1781 8.54059L60.5332 5.96145L64.189 5.43005L65.823 2.11871L67.4571 5.43005L71.1129 5.96145L68.468 8.53886Z" fill="#F9CE46"/>
<path d="M68.468 8.53886L69.0928 12.1791L65.823 10.462L62.5532 12.1808L63.1781 8.54059L60.5332 5.96145L64.189 5.43005L65.823 2.11871L67.4571 5.43005L71.1129 5.96145L68.468 8.53886Z" fill="#F9CE46"/>
<path d="M92.177 4.9298L87.7821 4.29107L85.8174 0.308118C85.7638 0.199068 85.6755 0.110788 85.5664 0.0571283C85.2929 -0.0778871 84.9606 0.0346257 84.8238 0.308118L82.8592 4.29107L78.4643 4.9298C78.3431 4.94711 78.2323 5.00423 78.1475 5.09078C78.045 5.19617 77.9885 5.33796 77.9904 5.48499C77.9924 5.63202 78.0526 5.77227 78.1579 5.87491L81.3377 8.97507L80.5864 13.3527C80.5688 13.4545 80.5801 13.5592 80.619 13.655C80.6578 13.7508 80.7228 13.8337 80.8064 13.8944C80.89 13.9552 80.989 13.9912 81.092 13.9986C81.1951 14.0059 81.2982 13.9843 81.3896 13.936L85.3206 11.8692L89.2517 13.936C89.359 13.9931 89.4836 14.0122 89.603 13.9914C89.9042 13.9395 90.1067 13.6539 90.0548 13.3527L89.3036 8.97507L92.4834 5.87491C92.5699 5.79009 92.627 5.67931 92.6443 5.55814C92.6911 5.25522 92.4799 4.9748 92.177 4.9298ZM87.9655 8.53886L88.5904 12.1791L85.3206 10.462L82.0508 12.1808L82.6757 8.54059L80.0308 5.96145L83.6866 5.43005L85.3206 2.11871L86.9547 5.43005L90.6105 5.96145L87.9655 8.53886Z" fill="#F9CE46"/>
<path d="M87.9655 8.53886L88.5904 12.1791L85.3206 10.462L82.0508 12.1808L82.6757 8.54059L80.0308 5.96145L83.6866 5.43005L85.3206 2.11871L86.9547 5.43005L90.6105 5.96145L87.9655 8.53886Z" fill="#F9CE46"/>
</svg>
