<svg width="64" height="64" viewBox="0 0 64 64" fill="none" xmlns="http://www.w3.org/2000/svg">
<circle cx="32" cy="32" r="31" fill="#2D60A4" stroke="white" stroke-width="2"/>
<path d="M36.8279 38.0391V22.5655C36.8279 22.2419 36.5656 21.9795 36.2419 21.9795H24.8879C24.5642 21.9795 24.3019 22.2419 24.3019 22.5655V38.0391C24.3019 38.3627 24.5642 38.6251 24.8879 38.6251H36.2419C36.5656 38.6251 36.8279 38.3627 36.8279 38.0391ZM35.656 37.4532H25.4738V23.1514H35.656V37.4532Z" fill="white"/>
<path d="M27.1833 40.5794C26.4257 40.5794 26.4257 41.7513 27.1833 41.7513H33.9466C34.7041 41.7513 34.7041 40.5794 33.9466 40.5794H27.1833Z" fill="white"/>
<path d="M48.4821 17.3844C48.4821 15.992 48.0419 14.6686 47.2092 13.5573C46.7546 12.9511 45.8171 13.6537 46.2713 14.26C46.9509 15.167 47.3102 16.2474 47.3102 17.3844C47.3102 20.2586 44.9743 22.597 42.1031 22.597C39.2319 22.597 36.8959 20.2586 36.8959 17.3844C36.8959 14.5102 39.2319 12.1719 42.1031 12.1719C42.8413 12.1719 43.5565 12.3248 44.2289 12.6262C44.9201 12.9364 45.3997 11.867 44.7085 11.5569C43.8842 11.1874 43.0077 11 42.1031 11C38.8902 11 36.2259 13.3899 35.7884 16.4865C34.3784 16.4899 32.9425 16.4805 31.5489 16.4711C28.1475 16.4484 24.6299 16.425 21.1861 16.5859C19.7089 16.5968 18.511 18.0954 18.5056 19.5079L18.4408 38.7569C18.4424 39.4924 19.6143 39.5268 19.6127 38.7544C19.6155 38.3136 19.6774 19.53 19.6774 19.53C19.7031 18.6975 20.3506 17.7975 21.2284 17.7572C24.6448 17.5971 28.1507 17.6205 31.5412 17.6432C32.9176 17.6524 34.3358 17.6617 35.731 17.6586C35.8241 19.8499 37.0249 21.7588 38.787 22.8364V32.8408C38.787 33.3052 39.3256 33.5873 39.7071 33.3221L41.5172 32.0654V44.6921C41.5172 44.739 41.4793 44.7772 41.4326 44.7772H21.5902C20.8372 44.7772 20.1454 45.0399 19.603 45.477C19.602 44.4306 19.6051 43.3862 19.6127 42.2961C19.6177 41.5607 18.4463 41.5156 18.4408 42.288C18.4274 44.2112 18.4274 45.9921 18.4408 47.8928C18.4408 47.8938 18.441 47.8949 18.441 47.8961C18.4451 49.6083 19.8561 51 21.5902 51H42.103C42.4267 51 42.6889 50.7377 42.6889 50.4141C42.6889 50.0905 42.4267 49.8281 42.103 49.8281H40.6902V45.9492H41.4325C42.1253 45.9492 42.6889 45.3853 42.6889 44.6921V32.0653L44.499 33.322C44.8828 33.5884 45.4191 33.3045 45.4191 32.8407V22.8363C47.2545 21.7139 48.4821 19.6901 48.4821 17.3844ZM21.5902 49.8279C20.4998 49.8279 19.6126 48.9578 19.6126 47.8885C19.6126 46.819 20.4997 45.9489 21.5902 45.9489H39.5183V49.8279H21.5902ZM44.2473 31.7206L42.4372 30.4639C42.2363 30.3243 41.9699 30.3243 41.7689 30.4639L39.9588 31.7206V23.3967C40.6293 23.637 41.351 23.7688 42.103 23.7688C42.855 23.7688 43.5767 23.637 44.2472 23.3967L44.2473 31.7206Z" fill="white"/>
<path d="M43.3418 15.8802L42.6286 14.4337C42.4177 14.0059 41.7884 14.0059 41.5775 14.4337L40.8643 15.8802L39.2697 16.1122C38.798 16.1808 38.6037 16.7786 38.9448 17.1114L40.099 18.2375L39.8265 19.8278C39.7458 20.2979 40.2569 20.6663 40.6768 20.4453L42.1031 19.6948L43.5293 20.4453C43.9513 20.6674 44.4601 20.2976 44.3797 19.8278L44.1072 18.2375L45.2614 17.1113C45.6026 16.7785 45.4082 16.1807 44.9366 16.1121L43.3418 15.8802ZM43.0685 17.6137C42.9305 17.7483 42.8676 17.9421 42.9001 18.1321L43.024 18.8553L42.3759 18.5142C42.2905 18.4693 42.1968 18.4468 42.1031 18.4468C42.0093 18.4468 41.9157 18.4693 41.8303 18.5142L41.1822 18.8552L41.3061 18.1321C41.3386 17.9421 41.2757 17.7482 41.1378 17.6137L40.6123 17.1011L41.3379 16.9955C41.5287 16.9678 41.6938 16.8478 41.779 16.6748L42.103 16.0177L42.427 16.6748C42.5123 16.8478 42.6773 16.9678 42.8682 16.9955L43.5938 17.1011L43.0685 17.6137Z" fill="white"/>
<path d="M13.4775 29.5048L15.4966 30.6716C16.1307 31.0379 16.7375 30.0352 16.083 29.657L14.0639 28.4902C13.4078 28.1112 12.8215 29.1258 13.4775 29.5048Z" fill="white"/>
<path d="M15.4856 33.5121C15.4856 33.1885 15.2233 32.9261 14.8997 32.9261H12.5682C11.8106 32.9261 11.8106 34.098 12.5682 34.098H14.8997C15.2232 34.098 15.4856 33.8356 15.4856 33.5121Z" fill="white"/>
<path d="M15.5079 36.3495L13.4888 37.5163C12.8485 37.8864 13.4299 38.9037 14.0752 38.5309L16.0943 37.3641C16.7501 36.985 16.1637 35.9705 15.5079 36.3495Z" fill="white"/>
<path d="M50.4868 37.4966L48.4677 36.3299C47.8116 35.9509 47.2253 36.9654 47.8813 37.3445L49.9004 38.5112C50.5345 38.8776 51.1413 37.8749 50.4868 37.4966Z" fill="white"/>
<path d="M51.3961 32.9035H49.0646C48.307 32.9035 48.307 34.0753 49.0646 34.0753H51.3961C52.1537 34.0753 52.1537 32.9035 51.3961 32.9035Z" fill="white"/>
<path d="M48.1638 30.7307C48.2632 30.7307 48.3641 30.7054 48.4564 30.652L50.4755 29.4852C51.1314 29.1061 50.545 28.0916 49.8891 28.4706L47.87 29.6374C47.3461 29.9402 47.5987 30.7307 48.1638 30.7307Z" fill="white"/>
<path d="M36.8279 38.0391V22.5655C36.8279 22.2419 36.5656 21.9795 36.2419 21.9795H24.8879C24.5642 21.9795 24.3019 22.2419 24.3019 22.5655V38.0391C24.3019 38.3627 24.5642 38.6251 24.8879 38.6251H36.2419C36.5656 38.6251 36.8279 38.3627 36.8279 38.0391ZM35.656 37.4532H25.4738V23.1514H35.656V37.4532Z" stroke="white" stroke-width="0.5"/>
<path d="M27.1833 40.5794C26.4257 40.5794 26.4257 41.7513 27.1833 41.7513H33.9466C34.7041 41.7513 34.7041 40.5794 33.9466 40.5794H27.1833Z" stroke="white" stroke-width="0.5"/>
<path d="M48.4821 17.3844C48.4821 15.992 48.0419 14.6686 47.2092 13.5573C46.7546 12.9511 45.8171 13.6537 46.2713 14.26C46.9509 15.167 47.3102 16.2474 47.3102 17.3844C47.3102 20.2586 44.9743 22.597 42.1031 22.597C39.2319 22.597 36.8959 20.2586 36.8959 17.3844C36.8959 14.5102 39.2319 12.1719 42.1031 12.1719C42.8413 12.1719 43.5565 12.3248 44.2289 12.6262C44.9201 12.9364 45.3997 11.867 44.7085 11.5569C43.8842 11.1874 43.0077 11 42.1031 11C38.8902 11 36.2259 13.3899 35.7884 16.4865C34.3784 16.4899 32.9425 16.4805 31.5489 16.4711C28.1475 16.4484 24.6299 16.425 21.1861 16.5859C19.7089 16.5968 18.511 18.0954 18.5056 19.5079L18.4408 38.7569C18.4424 39.4924 19.6143 39.5268 19.6127 38.7544C19.6155 38.3136 19.6774 19.53 19.6774 19.53C19.7031 18.6975 20.3506 17.7975 21.2284 17.7572C24.6448 17.5971 28.1507 17.6205 31.5412 17.6432C32.9176 17.6524 34.3358 17.6617 35.731 17.6586C35.8241 19.8499 37.0249 21.7588 38.787 22.8364V32.8408C38.787 33.3052 39.3256 33.5873 39.7071 33.3221L41.5172 32.0654V44.6921C41.5172 44.739 41.4793 44.7772 41.4326 44.7772H21.5902C20.8372 44.7772 20.1454 45.0399 19.603 45.477C19.602 44.4306 19.6051 43.3862 19.6127 42.2961C19.6177 41.5607 18.4463 41.5156 18.4408 42.288C18.4274 44.2112 18.4274 45.9921 18.4408 47.8928C18.4408 47.8938 18.441 47.8949 18.441 47.8961C18.4451 49.6083 19.8561 51 21.5902 51H42.103C42.4267 51 42.6889 50.7377 42.6889 50.4141C42.6889 50.0905 42.4267 49.8281 42.103 49.8281H40.6902V45.9492H41.4325C42.1253 45.9492 42.6889 45.3853 42.6889 44.6921V32.0653L44.499 33.322C44.8828 33.5884 45.4191 33.3045 45.4191 32.8407V22.8363C47.2545 21.7139 48.4821 19.6901 48.4821 17.3844ZM21.5902 49.8279C20.4998 49.8279 19.6126 48.9578 19.6126 47.8885C19.6126 46.819 20.4997 45.9489 21.5902 45.9489H39.5183V49.8279H21.5902ZM44.2473 31.7206L42.4372 30.4639C42.2363 30.3243 41.9699 30.3243 41.7689 30.4639L39.9588 31.7206V23.3967C40.6293 23.637 41.351 23.7688 42.103 23.7688C42.855 23.7688 43.5767 23.637 44.2472 23.3967L44.2473 31.7206Z" stroke="white" stroke-width="0.5"/>
<path d="M43.3418 15.8802L42.6286 14.4337C42.4177 14.0059 41.7884 14.0059 41.5775 14.4337L40.8643 15.8802L39.2697 16.1122C38.798 16.1808 38.6037 16.7786 38.9448 17.1114L40.099 18.2375L39.8265 19.8278C39.7458 20.2979 40.2569 20.6663 40.6768 20.4453L42.1031 19.6948L43.5293 20.4453C43.9513 20.6674 44.4601 20.2976 44.3797 19.8278L44.1072 18.2375L45.2614 17.1113C45.6026 16.7785 45.4082 16.1807 44.9366 16.1121L43.3418 15.8802ZM43.0685 17.6137C42.9305 17.7483 42.8676 17.9421 42.9001 18.1321L43.024 18.8553L42.3759 18.5142C42.2905 18.4693 42.1968 18.4468 42.1031 18.4468C42.0093 18.4468 41.9157 18.4693 41.8303 18.5142L41.1822 18.8552L41.3061 18.1321C41.3386 17.9421 41.2757 17.7482 41.1378 17.6137L40.6123 17.1011L41.3379 16.9955C41.5287 16.9678 41.6938 16.8478 41.779 16.6748L42.103 16.0177L42.427 16.6748C42.5123 16.8478 42.6773 16.9678 42.8682 16.9955L43.5938 17.1011L43.0685 17.6137Z" stroke="white" stroke-width="0.5"/>
<path d="M13.4775 29.5048L15.4966 30.6716C16.1307 31.0379 16.7375 30.0352 16.083 29.657L14.0639 28.4902C13.4078 28.1112 12.8215 29.1258 13.4775 29.5048Z" stroke="white" stroke-width="0.5"/>
<path d="M15.4856 33.5121C15.4856 33.1885 15.2233 32.9261 14.8997 32.9261H12.5682C11.8106 32.9261 11.8106 34.098 12.5682 34.098H14.8997C15.2232 34.098 15.4856 33.8356 15.4856 33.5121Z" stroke="white" stroke-width="0.5"/>
<path d="M15.5079 36.3495L13.4888 37.5163C12.8485 37.8864 13.4299 38.9037 14.0752 38.5309L16.0943 37.3641C16.7501 36.985 16.1637 35.9705 15.5079 36.3495Z" stroke="white" stroke-width="0.5"/>
<path d="M50.4868 37.4966L48.4677 36.3299C47.8116 35.9509 47.2253 36.9654 47.8813 37.3445L49.9004 38.5112C50.5345 38.8776 51.1413 37.8749 50.4868 37.4966Z" stroke="white" stroke-width="0.5"/>
<path d="M51.3961 32.9035H49.0646C48.307 32.9035 48.307 34.0753 49.0646 34.0753H51.3961C52.1537 34.0753 52.1537 32.9035 51.3961 32.9035Z" stroke="white" stroke-width="0.5"/>
<path d="M48.1638 30.7307C48.2632 30.7307 48.3641 30.7054 48.4564 30.652L50.4755 29.4852C51.1314 29.1061 50.545 28.0916 49.8891 28.4706L47.87 29.6374C47.3461 29.9402 47.5987 30.7307 48.1638 30.7307Z" stroke="white" stroke-width="0.5"/>
</svg>
