<svg width="64" height="64" viewBox="0 0 64 64" fill="none" xmlns="http://www.w3.org/2000/svg">
<circle cx="32" cy="32" r="31" fill="#2D60A4" stroke="white" stroke-width="2"/>
<path d="M49.7286 29.0417C49.1113 28.5878 48.3443 28.0208 48.2434 27.6452C48.1338 27.2347 48.5251 26.3304 48.8417 25.6052C49.3826 24.3599 49.9426 23.0712 49.3217 21.9964C48.6939 20.9077 47.2834 20.7495 45.9217 20.5965C45.1443 20.5095 44.1773 20.4017 43.8886 20.1112C43.5981 19.8226 43.4904 18.8556 43.4034 18.0782C43.2504 16.7164 43.092 15.3077 42.0034 14.6782C41.0573 14.1286 39.6556 14.6086 38.3947 15.1582C37.6973 15.4608 36.9703 15.7494 36.353 15.7564C35.9773 15.6573 35.4121 14.8886 34.9564 14.2712C34.1722 13.2069 33.2834 12 32 12C30.7182 12 29.8278 13.2069 29.0434 14.2696C28.5878 14.8869 28.0225 15.6557 27.4903 15.7739C27.0225 15.7739 26.3025 15.4608 25.6052 15.1582C24.3408 14.6087 22.9374 14.1339 21.9982 14.6782C20.9078 15.3078 20.7496 16.7165 20.5965 18.0783C20.5113 18.8556 20.4017 19.8209 20.113 20.1113C19.8225 20.4018 18.8556 20.5096 18.0799 20.5965C16.7164 20.7496 15.3059 20.9096 14.6782 21.9965C14.0573 23.0696 14.6173 24.3583 15.1582 25.6052C15.4747 26.3305 15.8677 27.2348 15.7581 27.6452C15.6573 28.0209 14.8886 28.5879 14.2729 29.0418C13.2069 29.8261 12 30.7165 12 32C12 33.2834 13.2069 34.1739 14.2713 34.9582C14.8886 35.4121 15.6556 35.9791 15.7565 36.3548C15.8661 36.7652 15.4748 37.6695 15.1582 38.3948C14.6173 39.64 14.0574 40.9287 14.6782 42.0035C15.306 43.0922 16.7165 43.2504 18.0783 43.4035C18.8556 43.4904 19.8226 43.5982 20.1113 43.8887C20.4018 44.1773 20.5096 45.1444 20.5965 45.9217C20.7496 47.2835 20.9079 48.6922 21.9965 49.3218C22.9391 49.8696 24.3408 49.3913 25.6052 48.8418C26.3027 48.5392 27.0156 48.233 27.6469 48.2435C28.0226 48.3426 28.5878 49.1113 29.0435 49.7287C29.8278 50.7931 30.7166 52 32 52C33.2818 52 34.1722 50.7931 34.9548 49.7304C35.4104 49.1131 35.9757 48.3443 36.5079 48.2261C36.9774 48.2261 37.6974 48.5392 38.3931 48.8418C39.6592 49.3931 41.0609 49.8679 42 49.3235C43.0904 48.6939 43.2486 47.2852 43.4017 45.9217C43.4869 45.1444 43.5965 44.1791 43.8853 43.8887C44.1757 43.5982 45.1426 43.4904 45.9183 43.4035C47.2818 43.2504 48.6923 43.0904 49.3201 42.0035C49.9426 40.9304 49.3827 39.6417 48.8401 38.3948C48.5235 37.6695 48.1322 36.7669 48.2418 36.3548C48.3426 35.9791 49.1114 35.4121 49.727 34.9582C50.7931 34.1739 52.0001 33.2834 52.0001 32C52.0001 30.7165 50.793 29.8261 49.7286 29.0417ZM48.6991 33.5547C47.7756 34.2347 46.8208 34.9373 46.5635 35.9009C46.2974 36.8991 46.7809 38.0104 47.2487 39.0852C47.5478 39.7739 48 40.8138 47.8191 41.1287C47.6295 41.4574 46.4869 41.5861 45.7286 41.6713C44.5739 41.8017 43.3791 41.9357 42.6591 42.6557C41.9391 43.3757 41.8051 44.5704 41.6765 45.7252C41.5913 46.4817 41.4626 47.626 41.1322 47.8157C41.0817 47.8452 40.9982 47.8522 40.9374 47.8522C40.4852 47.8522 39.7757 47.5426 39.0888 47.2452C38.0105 46.7774 36.8313 46.3113 35.9062 46.5618C34.9409 46.8191 34.2383 47.7739 33.5566 48.6974C33.0975 49.32 32.4036 50.2609 32.0001 50.2609C31.5967 50.2609 30.901 49.3201 30.4436 48.6974C29.7637 47.7756 29.061 46.8208 28.0958 46.5635C27.9063 46.513 27.7028 46.4869 27.4889 46.4869C26.6593 46.4869 25.7706 46.873 24.9115 47.2487C24.2263 47.5461 23.5167 47.8556 23.0628 47.8556C23.0019 47.8556 22.9184 47.8487 22.8681 47.8191C22.5377 47.6277 22.4106 46.4851 22.3255 45.7286C22.195 44.5739 22.0611 43.3791 21.3411 42.6591C20.6228 41.9391 19.4263 41.8051 18.2715 41.6747C17.5167 41.5895 16.3724 41.4608 16.1829 41.1321C16.0003 40.8191 16.4542 39.7773 16.7533 39.0886C17.2211 38.0138 17.7046 36.9025 17.4385 35.9043C17.1793 34.9408 16.2245 34.2382 15.3029 33.5582C14.6803 33.0973 13.7393 32.4034 13.7393 31.9999C13.7393 31.5963 14.6802 30.9025 15.3029 30.4416C16.2263 29.7616 17.1811 29.059 17.4385 28.0955C17.7046 27.0972 17.2211 25.9859 16.7533 24.9112C16.4559 24.2225 16.002 23.1825 16.1829 22.8677C16.3742 22.539 17.5168 22.4102 18.2733 22.3268C19.4281 22.1963 20.6229 22.0624 21.3429 21.3424C22.0629 20.6224 22.1968 19.4276 22.3272 18.2728C22.4107 17.5163 22.5394 16.3737 22.8699 16.1824C22.9203 16.1528 23.0038 16.1459 23.0646 16.1459C23.5168 16.1459 24.2264 16.4554 24.9116 16.7546C25.9899 17.2224 27.1672 17.6902 28.0942 17.4381C29.0594 17.1807 29.762 16.2259 30.4437 15.3024C30.9028 14.6799 31.5968 13.7389 32.0002 13.7389C32.4037 13.7389 33.0994 14.6798 33.5585 15.3006C34.2385 16.2224 34.9411 17.1772 35.9063 17.4346C36.8246 17.6798 38.0106 17.2206 39.0889 16.7511C39.7741 16.4537 40.4837 16.1442 40.9376 16.1442C40.9985 16.1442 41.082 16.1511 41.1323 16.1807C41.4628 16.372 41.5898 17.5146 41.675 18.2711C41.8054 19.4259 41.9393 20.6207 42.6593 21.3407C43.3776 22.0607 44.5741 22.1946 45.7289 22.325C46.4837 22.4102 47.628 22.539 47.8175 22.8677C48.0001 23.1807 47.5462 24.2225 47.2471 24.9112C46.7793 25.9859 46.2958 27.0972 46.5619 28.0955C46.8211 29.059 47.7759 29.7615 48.6976 30.4416C49.3201 30.9024 50.2611 31.5963 50.2611 31.9999C50.2611 32.4034 49.32 33.0974 48.6991 33.5547Z" fill="white"/>
<path d="M26.7825 27.652C26.3025 27.652 25.9129 28.0416 25.9129 28.5216V32.8694L22.2608 27.9999C22.0364 27.7008 21.6434 27.5773 21.2903 27.6973C20.9356 27.8156 20.6956 28.1477 20.6956 28.5216V35.4781C20.6956 35.9581 21.0851 36.3477 21.5651 36.3477C22.0451 36.3477 22.4347 35.9581 22.4347 35.4781V31.1303L26.0869 35.9999C26.2539 36.2225 26.5147 36.3477 26.7825 36.3477C26.8747 36.3477 26.9669 36.3338 27.0573 36.3025C27.4121 36.1842 27.6521 35.8521 27.6521 35.4781V28.5216C27.6521 28.0416 27.2625 27.652 26.7825 27.652Z" fill="white"/>
<path d="M33.7392 34.6086H31.1305V29.3912H33.7392C34.2192 29.3912 34.6088 29.0016 34.6088 28.5216C34.6088 28.0416 34.2192 27.6521 33.7392 27.6521H30.2609C29.781 27.6521 29.3914 28.0417 29.3914 28.5217V35.4782C29.3914 35.9582 29.781 36.3478 30.2609 36.3478H33.7392C34.2192 36.3478 34.6088 35.9582 34.6088 35.4782C34.6088 34.9982 34.2192 34.6086 33.7392 34.6086Z" fill="white"/>
<path d="M33.7392 31.1304H30.2609C29.781 31.1304 29.3914 31.52 29.3914 32C29.3914 32.48 29.781 32.8695 30.2609 32.8695H33.7392C34.2192 32.8695 34.6088 32.4799 34.6088 31.9999C34.6088 31.5199 34.2192 31.1304 33.7392 31.1304Z" fill="white"/>
<path d="M44.3826 27.6782C43.9131 27.5617 43.4435 27.8435 43.3287 28.3112L42.3148 32.3704L41.5201 29.986C41.2836 29.2765 40.1079 29.2765 39.8697 29.986L39.0749 32.3704L38.061 28.3112C37.9445 27.8434 37.4645 27.5599 37.0071 27.6782C36.5411 27.7947 36.2593 28.2661 36.3741 28.7321L38.1132 35.6886C38.2071 36.0626 38.5375 36.3321 38.9236 36.346C39.3602 36.3634 39.661 36.1182 39.7828 35.7529L40.6958 33.0103L41.6089 35.7529C41.7289 36.1094 42.0611 36.3477 42.4349 36.3477C42.4454 36.3477 42.4575 36.3477 42.4662 36.346C42.8523 36.3321 43.1827 36.0643 43.2766 35.6886L45.0157 28.7321C45.1322 28.2661 44.8504 27.7947 44.3826 27.6782Z" fill="white"/>
</svg>
