<svg width="16" height="24" viewBox="0 0 16 24" fill="none" xmlns="http://www.w3.org/2000/svg">
<path d="M15.335 10.8908C15.335 12.6898 15.335 14.4897 15.335 16.2906C15.3448 16.5898 15.3341 16.8894 15.303 17.1872C15.239 17.6325 15.1458 18.0604 15.0439 18.5116C14.8778 19.1648 14.6096 19.7876 14.2492 20.3572C13.9025 20.9275 13.4816 21.4492 12.9975 21.9087C12.4324 22.449 11.7885 22.9005 11.088 23.2477C10.5378 23.5099 9.95832 23.7053 9.36178 23.8299C8.43052 24.0193 7.47405 24.0508 6.53235 23.9231C5.79118 23.8293 5.06926 23.6201 4.39281 23.303C3.83941 23.0478 3.31853 22.7272 2.84128 22.3483C2.19276 21.8366 1.63482 21.2196 1.19078 20.5231C0.833528 19.9649 0.551636 19.362 0.352428 18.73C0.117845 17.976 -0.000915398 17.1908 0.000204492 16.4012V5.19993C-0.0109441 3.95016 0.434097 2.73924 1.25191 1.79413C1.69698 1.28103 2.24038 0.862338 2.85001 0.562807C3.34666 0.300317 3.88742 0.131578 4.44521 0.0650373C5.45239 -0.0484892 6.46249 0.0242841 7.47258 0.00972939C8.28473 0.00972939 9.09979 0.00972939 9.91194 0.00972939C10.2962 0.00972939 10.6833 0.0359277 11.0763 0.0795918C11.3006 0.109698 11.5204 0.166374 11.7313 0.248426C12.0644 0.368401 12.3892 0.510379 12.7035 0.673423C13.3559 1.02634 13.9186 1.52428 14.3482 2.12889C14.6283 2.50266 14.8519 2.91557 15.0119 3.35439C15.116 3.6772 15.2015 4.0057 15.2681 4.33829C15.35 4.85016 15.3754 5.36949 15.3438 5.88691C15.3399 7.54614 15.337 9.21411 15.335 10.8908ZM14.191 10.8908C14.191 9.00743 14.191 7.12697 14.191 5.24359C14.2018 4.65985 14.0887 4.08045 13.8592 3.54361C13.5407 2.80619 13.0057 2.1829 12.3251 1.75629C11.7278 1.36936 11.034 1.15758 10.3224 1.14499C9.68198 1.14499 9.04157 1.14499 8.40117 1.14499C8.28764 1.14499 8.24689 1.18284 8.2498 1.29345C8.2498 1.85526 8.2498 2.41998 8.2498 2.98179C8.2498 3.06912 8.27018 3.11861 8.36915 3.12734C8.44737 3.13502 8.52394 3.15466 8.5962 3.18556C8.86049 3.27691 9.09053 3.44689 9.25546 3.6727C9.4204 3.89851 9.51234 4.16935 9.51897 4.44891C9.54226 5.0049 9.54226 5.56671 9.51897 6.12269C9.51065 6.43948 9.39262 6.74355 9.18504 6.98298C8.97745 7.22242 8.69319 7.38237 8.38079 7.43553C8.28764 7.45299 8.24689 7.49375 8.24689 7.58981C8.24689 7.9071 8.24689 8.22439 8.24689 8.53877C8.24689 8.77747 8.24689 9.01617 8.24689 9.25486C8.24689 9.35675 8.28473 9.3975 8.38661 9.38003C8.4885 9.36257 8.58165 9.34801 8.67771 9.34219C9.2356 9.31128 9.78778 9.21355 10.3224 9.0511C10.7532 8.91428 11.1753 8.74254 11.6003 8.58535C11.772 8.52131 11.935 8.43398 12.1097 8.38158C12.2172 8.35949 12.329 8.3708 12.4299 8.41398C12.5308 8.45716 12.6161 8.53016 12.6744 8.62319C12.7295 8.71405 12.7598 8.81776 12.7624 8.92399C12.765 9.03022 12.7396 9.13526 12.689 9.22866C12.5669 9.39454 12.3926 9.5145 12.1941 9.56924C11.7051 9.76428 11.2219 9.97677 10.7212 10.1514C10.1358 10.3287 9.53411 10.4467 8.92514 10.5037C7.71779 10.6195 6.49974 10.5448 5.31558 10.2824C5.09143 10.2358 4.87311 10.1718 4.65188 10.1107C4.43065 10.0495 4.20942 9.98551 3.99401 9.90982C3.70292 9.79921 3.38271 9.68568 3.08289 9.55469C2.94092 9.4935 2.81085 9.40777 2.69864 9.30144C2.61727 9.21001 2.56948 9.09359 2.56313 8.97136C2.55678 8.84913 2.59225 8.72838 2.66371 8.62901C2.73052 8.53503 2.82373 8.463 2.93152 8.42206C3.03931 8.38112 3.15684 8.37311 3.26919 8.39905C3.46422 8.48637 3.66507 8.5737 3.86884 8.64357C4.28219 8.78329 4.69555 8.93466 5.11763 9.04237C5.71521 9.20575 6.3276 9.30912 6.9457 9.35092C7.09707 9.35092 7.11162 9.35092 7.11162 9.19955V7.75864C7.11162 7.46755 7.11162 7.46755 6.84091 7.40933H6.81762C6.52829 7.32249 6.27489 7.14422 6.09541 6.90123C5.91593 6.65825 5.82003 6.36364 5.82208 6.06157C5.82208 5.54342 5.82208 5.02818 5.82208 4.51004C5.81785 4.18089 5.93094 3.861 6.1411 3.60764C6.35125 3.35429 6.64473 3.18402 6.96899 3.12734C7.0796 3.10405 7.11162 3.05748 7.11162 2.9556C7.11162 2.40834 7.11162 1.864 7.11162 1.31674C7.11162 1.16828 7.08543 1.14499 6.93988 1.14499C6.39262 1.14499 5.84537 1.14499 5.30102 1.14499C4.77111 1.13166 4.24352 1.21959 3.74658 1.40407C3.01033 1.67928 2.37217 2.16651 1.91269 2.80423C1.39367 3.52097 1.12374 4.38801 1.1442 5.2727C1.1442 8.43689 1.1442 11.6011 1.1442 14.7653C1.1442 15.7433 1.06561 16.7301 1.27811 17.6995C1.33885 18.0217 1.4235 18.3389 1.53136 18.6485C1.67791 19.0086 1.84608 19.3595 2.03495 19.6993C2.3742 20.3057 2.8199 20.8461 3.35069 21.2945C3.75635 21.6441 4.20425 21.9413 4.6839 22.1794C5.18846 22.4337 5.72503 22.6188 6.2791 22.7296C6.66373 22.7981 7.05293 22.838 7.44347 22.8489C8.88812 22.9205 10.3147 22.5025 11.4922 21.6625C12.6697 20.8226 13.5294 19.6098 13.9319 18.2205C14.1044 17.6069 14.1877 16.9716 14.1794 16.3343C14.1852 14.5237 14.1891 12.7121 14.191 10.8995V10.8908ZM6.96899 5.26979C6.96899 5.52886 6.96899 5.78794 6.96899 6.04701C6.96487 6.08625 6.96957 6.12591 6.98274 6.1631C6.99592 6.20029 7.01723 6.23407 7.04513 6.26197C7.07303 6.28986 7.1068 6.31118 7.14399 6.32435C7.18118 6.33752 7.22084 6.34222 7.26008 6.3381C7.53953 6.3381 7.81898 6.3381 8.09843 6.3381C8.13744 6.34117 8.17665 6.33574 8.21336 6.3222C8.25006 6.30865 8.2834 6.28731 8.31106 6.25965C8.33873 6.23198 8.36007 6.19864 8.37362 6.16193C8.38716 6.12523 8.39259 6.08602 8.38953 6.04701C8.38953 5.53469 8.38953 5.01945 8.38953 4.50713C8.39174 4.47088 8.38612 4.43458 8.37307 4.40069C8.36002 4.36681 8.33984 4.33612 8.31388 4.31072C8.28793 4.28532 8.25682 4.2658 8.22266 4.25348C8.1885 4.24116 8.15209 4.23633 8.1159 4.23932C7.8248 4.23932 7.55118 4.23932 7.2659 4.23932C7.22643 4.23405 7.18628 4.23794 7.14856 4.25071C7.11084 4.26347 7.07657 4.28476 7.04841 4.31292C7.02025 4.34108 6.99896 4.37535 6.9862 4.41307C6.97343 4.45079 6.96954 4.49094 6.97481 4.53041C6.96608 4.77784 6.96899 5.02527 6.96899 5.26979Z" fill="#F8F8F8"/>
</svg>
