<svg width="29" height="14" viewBox="0 0 29 14" fill="none" xmlns="http://www.w3.org/2000/svg">
<path d="M28.5721 6.20081L28.5711 6.19974L22.6717 0.328771C22.2297 -0.111044 21.5149 -0.109407 21.0749 0.332609C20.6351 0.774569 20.6368 1.48942 21.0787 1.92929L25.0396 5.87097H1.12903C0.505468 5.87097 0 6.37644 0 7C0 7.62356 0.505468 8.12903 1.12903 8.12903H13.0843H25.0395L21.0788 12.0707C20.6368 12.5106 20.6351 13.2254 21.075 13.6674C21.5149 14.1095 22.2298 14.111 22.6717 13.6712L28.5712 7.80026L28.5722 7.79919C29.0144 7.35785 29.0129 6.64069 28.5721 6.20081Z" fill="#2D60A4"/>
</svg>
