<svg width="29" height="14" viewBox="0 0 29 14" fill="none" xmlns="http://www.w3.org/2000/svg">
<path d="M0.331159 7.79919C0.331497 7.79953 0.331779 7.79992 0.332174 7.80026L6.2316 13.6712C6.67356 14.111 7.38841 14.1094 7.82834 13.6674C8.26821 13.2254 8.26651 12.5106 7.82455 12.0707L3.86368 8.12903L27.7742 8.12903C28.3978 8.12903 28.9033 7.62356 28.9033 7C28.9033 6.37644 28.3978 5.87097 27.7742 5.87097L3.86373 5.87097L7.8245 1.92929C8.26646 1.48942 8.26815 0.774571 7.82828 0.332611C7.38835 -0.109462 6.67345 -0.110986 6.23154 0.328773L0.332118 6.19974C0.331779 6.20008 0.331497 6.20048 0.331102 6.20082C-0.111085 6.64216 -0.109673 7.35932 0.331159 7.79919Z" fill="#2D60A4"/>
</svg>
