<svg width="63" height="63" viewBox="0 0 63 63" fill="none" xmlns="http://www.w3.org/2000/svg">
<path d="M1.5612 32.9057C1.25266 32.5971 1.04251 32.2039 0.957265 31.7759C0.872023 31.3479 0.915511 30.9042 1.08225 30.5009C1.24899 30.0975 1.53152 29.7527 1.89412 29.5098C2.25672 29.2669 2.68316 29.137 3.11958 29.1363C6.57364 29.1363 8.30379 31.4473 9.59047 33.1587C10.8147 34.7952 11.3831 35.4135 12.5198 35.4135C13.6566 35.4135 14.2313 34.7952 15.4555 33.1587C16.7266 31.4629 18.4661 29.1363 21.9201 29.1363C25.3742 29.1363 27.1043 31.4473 28.391 33.1587C29.6152 34.7952 30.1836 35.4135 31.3204 35.4135C32.4572 35.4135 33.0287 34.792 34.256 33.1587C35.524 31.4598 37.2666 29.1362 40.7206 29.1362C44.1747 29.1362 45.9049 31.4473 47.1915 33.1587C48.4158 34.7952 48.9841 35.4135 50.124 35.4104C51.2639 35.4073 51.8323 34.7952 53.0566 33.1587C54.3276 31.4629 56.0671 29.1363 59.5274 29.1363C59.8206 29.1312 60.1119 29.1845 60.3842 29.2932C60.6566 29.4019 60.9046 29.5637 61.1137 29.7692C61.3228 29.9748 61.4889 30.2199 61.6023 30.4903C61.7157 30.7607 61.7741 31.051 61.7741 31.3442C61.7741 31.6375 61.7157 31.9278 61.6023 32.1982C61.4889 32.4686 61.3228 32.7137 61.1137 32.9193C60.9046 33.1248 60.6566 33.2866 60.3842 33.3953C60.1119 33.504 59.8206 33.5573 59.5274 33.5522C58.3875 33.5553 57.816 34.1706 56.5918 35.807C55.3207 37.5028 53.5812 39.8295 50.1241 39.8263C46.6669 39.8232 44.9398 37.5153 43.6563 35.807C42.4321 34.1706 41.8606 33.5553 40.7206 33.5522C39.5807 33.5491 39.0155 34.1706 37.7913 35.807C36.5171 37.5059 34.7744 39.8295 31.3204 39.8295C27.8663 39.8295 26.1362 37.5184 24.8557 35.807C23.6315 34.1706 23.0569 33.5522 21.9201 33.5522C20.7833 33.5522 20.2149 34.1706 18.9907 35.807C17.7165 37.5059 15.9739 39.8295 12.5198 39.8295C9.06579 39.8295 7.33877 37.5153 6.05521 35.807C4.82787 34.1674 4.25948 33.5553 3.11959 33.5522C2.82992 33.5533 2.54295 33.4967 2.27539 33.3857C2.00783 33.2747 1.76503 33.1115 1.5612 32.9057Z" fill="#2D60A4"/>
</svg>
