<svg width="172" height="62" viewBox="0 0 172 62" fill="none" xmlns="http://www.w3.org/2000/svg">
<rect x="1" y="1" width="170" height="60" rx="9" fill="#58585A" stroke="white" stroke-width="2"/>
<path d="M57.14 24.184H58.078L58.274 22H66.226V24.184H67.15L67.318 20.992H66.044V12.2H59.632V13.908C59.632 17.086 59.086 19.494 58.148 20.992H57.14V24.184ZM59.394 20.992C60.206 19.648 60.696 17.016 60.696 14.482V13.208H64.938V20.992H59.394ZM72.0627 22.168C74.2467 22.168 75.8567 20.432 75.8567 18.388C75.8567 16.316 74.2607 14.608 72.0907 14.608C69.9067 14.608 68.3107 16.344 68.3107 18.388C68.3107 20.46 69.8927 22.168 72.0627 22.168ZM72.0907 21.202C70.5647 21.202 69.4167 19.942 69.4167 18.388C69.4167 16.834 70.4947 15.56 72.0627 15.56C73.5887 15.56 74.7507 16.834 74.7507 18.388C74.7507 19.942 73.6587 21.202 72.0907 21.202ZM81.0715 22.168C82.4295 22.168 83.2975 21.58 84.0255 20.768L83.3115 20.11C82.7375 20.726 82.0515 21.202 81.1275 21.202C79.6155 21.202 78.4675 19.956 78.4675 18.388C78.4675 16.806 79.5875 15.56 81.0575 15.56C82.0375 15.56 82.7095 16.022 83.2835 16.624L83.9695 15.896C83.2975 15.182 82.4435 14.608 81.0715 14.608C78.9575 14.608 77.3615 16.344 77.3615 18.388C77.3615 20.446 78.9575 22.168 81.0715 22.168ZM87.5575 22H88.6495V15.714H91.2395V14.762H84.9675V15.714H87.5575V22ZM93.9275 24.282C95.0195 24.282 95.7195 23.736 96.3355 22.238L99.3735 14.762H98.2255L95.9015 20.796L93.2695 14.762H92.0795L95.3695 21.972C94.9355 22.994 94.5295 23.33 93.8855 23.33C93.4235 23.33 93.1015 23.246 92.7515 23.064L92.3875 23.918C92.8775 24.156 93.3255 24.282 93.9275 24.282ZM101.079 22H102.157V15.714H106.273V22H107.351V14.762H101.079V22ZM109.761 22H110.839V18.836H115.011V22H116.089V14.762H115.011V17.884H110.839V14.762H109.761V22ZM121.801 22.168C123.985 22.168 125.595 20.432 125.595 18.388C125.595 16.316 123.999 14.608 121.829 14.608C119.645 14.608 118.049 16.344 118.049 18.388C118.049 20.46 119.631 22.168 121.801 22.168ZM121.829 21.202C120.303 21.202 119.155 19.942 119.155 18.388C119.155 16.834 120.233 15.56 121.801 15.56C123.327 15.56 124.489 16.834 124.489 18.388C124.489 19.942 123.397 21.202 121.829 21.202ZM131.745 22H135.371C136.967 22 138.003 21.244 138.003 20.026C138.003 19.004 137.275 18.472 136.407 18.234C137.009 17.982 137.611 17.52 137.611 16.568C137.611 15.476 136.687 14.762 135.245 14.762H131.745V22ZM132.823 21.076V18.738H135.091C136.267 18.738 136.897 19.158 136.897 19.858C136.897 20.614 136.267 21.076 135.231 21.076H132.823ZM132.823 17.87V15.686H135.077C136.015 15.686 136.519 16.106 136.519 16.708C136.519 17.464 135.917 17.87 135.049 17.87H132.823Z" fill="white"/>
<path d="M54.504 44L60.804 29.195H63.786L70.086 44H66.705L65.361 40.703H59.145L57.801 44H54.504ZM60.3 37.847H64.206L62.253 33.08L60.3 37.847ZM72.0188 47.36V32.744H75.2108V34.361C76.1068 33.143 77.2758 32.534 78.7178 32.534C80.1178 32.534 81.3218 33.059 82.3298 34.109C83.3378 35.159 83.8418 36.587 83.8418 38.393C83.8418 40.185 83.3378 41.606 82.3298 42.656C81.3358 43.692 80.1318 44.21 78.7178 44.21C77.3178 44.21 76.1488 43.65 75.2108 42.53V47.36H72.0188ZM75.9458 40.64C76.4778 41.214 77.1288 41.501 77.8988 41.501C78.6688 41.501 79.3198 41.214 79.8518 40.64C80.3838 40.052 80.6498 39.289 80.6498 38.351C80.6498 37.441 80.3838 36.699 79.8518 36.125C79.3198 35.537 78.6688 35.243 77.8988 35.243C77.1288 35.243 76.4778 35.537 75.9458 36.125C75.4278 36.699 75.1688 37.455 75.1688 38.393C75.1688 39.303 75.4278 40.052 75.9458 40.64ZM86.1897 47.36V32.744H89.3817V34.361C90.2777 33.143 91.4467 32.534 92.8887 32.534C94.2887 32.534 95.4927 33.059 96.5007 34.109C97.5087 35.159 98.0127 36.587 98.0127 38.393C98.0127 40.185 97.5087 41.606 96.5007 42.656C95.5067 43.692 94.3027 44.21 92.8887 44.21C91.4887 44.21 90.3197 43.65 89.3817 42.53V47.36H86.1897ZM90.1167 40.64C90.6487 41.214 91.2997 41.501 92.0697 41.501C92.8397 41.501 93.4907 41.214 94.0227 40.64C94.5547 40.052 94.8207 39.289 94.8207 38.351C94.8207 37.441 94.5547 36.699 94.0227 36.125C93.4907 35.537 92.8397 35.243 92.0697 35.243C91.2997 35.243 90.6487 35.537 90.1167 36.125C89.5987 36.699 89.3397 37.455 89.3397 38.393C89.3397 39.303 89.5987 40.052 90.1167 40.64ZM105.926 44.21C103.518 44.21 101.439 43.426 99.6886 41.858L101.6 39.569C103.042 40.759 104.505 41.354 105.989 41.354C106.647 41.354 107.165 41.228 107.543 40.976C107.921 40.724 108.11 40.374 108.11 39.926C108.11 39.506 107.914 39.17 107.522 38.918C107.13 38.652 106.339 38.365 105.149 38.057C104.309 37.847 103.63 37.644 103.112 37.448C102.594 37.238 102.097 36.965 101.621 36.629C101.159 36.293 100.816 35.873 100.592 35.369C100.382 34.851 100.277 34.235 100.277 33.521C100.277 32.191 100.753 31.12 101.705 30.308C102.671 29.496 103.91 29.09 105.422 29.09C107.508 29.09 109.328 29.713 110.882 30.959L109.202 33.395C107.816 32.429 106.542 31.946 105.38 31.946C104.778 31.946 104.309 32.072 103.973 32.324C103.651 32.562 103.49 32.877 103.49 33.269C103.49 33.745 103.693 34.102 104.099 34.34C104.505 34.578 105.359 34.865 106.661 35.201C108.257 35.621 109.433 36.16 110.189 36.818C110.945 37.476 111.323 38.421 111.323 39.653C111.323 41.081 110.826 42.201 109.832 43.013C108.852 43.811 107.55 44.21 105.926 44.21ZM117.492 44.189C116.442 44.189 115.63 43.937 115.056 43.433C114.496 42.915 114.216 42.04 114.216 40.808V35.474H112.872V32.744H114.216V29.867H117.408V32.744H120.054V35.474H117.408V40.283C117.408 41.011 117.751 41.375 118.437 41.375C118.997 41.375 119.522 41.242 120.012 40.976V43.538C119.284 43.972 118.444 44.189 117.492 44.189ZM131.969 42.551C130.807 43.685 129.358 44.252 127.622 44.252C125.886 44.252 124.437 43.692 123.275 42.572C122.127 41.438 121.553 40.045 121.553 38.393C121.553 36.755 122.134 35.369 123.296 34.235C124.472 33.101 125.928 32.534 127.664 32.534C129.4 32.534 130.842 33.101 131.99 34.235C133.152 35.355 133.733 36.741 133.733 38.393C133.733 40.031 133.145 41.417 131.969 42.551ZM127.664 41.501C128.546 41.501 129.253 41.207 129.785 40.619C130.317 40.017 130.583 39.275 130.583 38.393C130.583 37.539 130.303 36.811 129.743 36.209C129.197 35.593 128.49 35.285 127.622 35.285C126.74 35.285 126.033 35.586 125.501 36.188C124.969 36.776 124.703 37.511 124.703 38.393C124.703 39.247 124.976 39.982 125.522 40.598C126.082 41.2 126.796 41.501 127.664 41.501ZM136.044 44V32.744H139.236V35.012C139.964 33.29 141.161 32.464 142.827 32.534V35.873H142.659C141.567 35.873 140.72 36.209 140.118 36.881C139.53 37.539 139.236 38.526 139.236 39.842V44H136.044ZM149.848 44.252C148.14 44.252 146.733 43.713 145.627 42.635C144.521 41.543 143.968 40.129 143.968 38.393C143.968 36.755 144.493 35.369 145.543 34.235C146.593 33.101 147.923 32.534 149.533 32.534C151.311 32.534 152.669 33.122 153.607 34.298C154.545 35.474 155.014 36.923 155.014 38.645C155.014 38.813 155 39.093 154.972 39.485H147.139C147.293 40.199 147.608 40.745 148.084 41.123C148.56 41.501 149.162 41.69 149.89 41.69C150.884 41.69 151.794 41.305 152.62 40.535L154.447 42.152C153.313 43.552 151.78 44.252 149.848 44.252ZM147.097 37.49H151.906C151.808 36.762 151.549 36.181 151.129 35.747C150.723 35.313 150.191 35.096 149.533 35.096C148.889 35.096 148.35 35.313 147.916 35.747C147.496 36.167 147.223 36.748 147.097 37.49Z" fill="white"/>
<path d="M41.968 12H26.364C25.064 12 24 13.063 24 14.364V44.635C24 45.936 25.064 47 26.364 47H41.968C43.268 47 44.332 45.938 44.332 44.636V14.364C44.332 13.063 43.268 12 41.968 12ZM31.67 13.704H36.662C36.82 13.704 36.948 13.832 36.948 13.991C36.948 14.149 36.82 14.277 36.662 14.277H31.67C31.512 14.277 31.384 14.149 31.384 13.991C31.384 13.832 31.512 13.704 31.67 13.704ZM34.166 45.818C33.513 45.818 32.984 45.289 32.984 44.635C32.984 43.981 33.513 43.453 34.166 43.453C34.819 43.453 35.348 43.981 35.348 44.635C35.348 45.289 34.819 45.818 34.166 45.818ZM42.687 42.625H25.645V15.749H42.687V42.625Z" fill="white"/>
</svg>
