<svg width="31" height="23" viewBox="0 0 31 23" fill="none" xmlns="http://www.w3.org/2000/svg">
<path d="M29.1926 10.7293H1.26924C0.568618 10.7293 0 11.298 0 11.9986C0 12.6992 0.568618 13.2678 1.26924 13.2678H29.1926C29.8932 13.2678 30.4618 12.6992 30.4618 11.9986C30.4618 11.298 29.8932 10.7293 29.1926 10.7293Z" fill="white"/>
<path d="M29.1926 20.4603H1.26924C0.568618 20.4603 0 21.0289 0 21.7295C0 22.4302 0.568618 22.9988 1.26924 22.9988H29.1926C29.8932 22.9988 30.4618 22.4302 30.4618 21.7295C30.4618 21.0289 29.8932 20.4603 29.1926 20.4603Z" fill="white"/>
<path d="M29.1926 0.998624H1.26924C0.568618 0.998624 0 1.56724 0 2.26787C0 2.96849 0.568618 3.53711 1.26924 3.53711H29.1926C29.8932 3.53711 30.4618 2.96849 30.4618 2.26787C30.4618 1.56724 29.8932 0.998624 29.1926 0.998624Z" fill="white"/>
</svg>
